<?xml version="1.0" encoding="utf-8"?>
<!-- Generator: Adobe Illustrator 25.4.1, SVG Export Plug-In . SVG Version: 6.00 Build 0)  -->
<svg version="1.1" id="Capa_1" xmlns="http://www.w3.org/2000/svg" xmlns:xlink="http://www.w3.org/1999/xlink" x="0px" y="0px"
	 viewBox="0 0 929.9 2622" style="enable-background:new 0 0 929.9 2622;" xml:space="preserve">
<style type="text/css">
	.st0{clip-path:url(#SVGID_00000039112468669036153060000006260847770550670248_);}
	.st1{opacity:0.2;}
	.st2{fill:none;stroke:#F8B133;stroke-width:62;stroke-miterlimit:10;}
</style>
<g id="Capa_2_00000016770528507068541910000009415033100635323525_">
	<g id="fondos">
		<g>
			<defs>
				<rect id="SVGID_1_" x="-595.4" y="31" width="1442.3" height="2560"/>
			</defs>
			<clipPath id="SVGID_00000058547475556008372370000003263735252196782008_">
				<use xlink:href="#SVGID_1_"  style="overflow:visible;"/>
			</clipPath>
			<g style="clip-path:url(#SVGID_00000058547475556008372370000003263735252196782008_);">
				<g class="st1">
					<path class="st2" d="M1051,235.1c0,112.7-91.4,306.1-204.1,306.1S643,347.7,643,235S734.3,31,847,31S1051,122.4,1051,235.1z"/>
					<path class="st2" d="M351,2069c-95-17.9-245,9.8-283.1-100.7c-52-201.2-48.9-442.5,8.2-640.9c35.2,104.6,90,202.5,160.8,290.6
						C245.6,1774.3,284.3,1927.4,351,2069z"/>
					<path class="st2" d="M1663.2,1663.4c-19.8,291.1,15.9,402.3-320.2,405.6c66.7-141.6,105.4-294.7,114.1-451
						c70.7-88.1,125.5-186,160.8-290.6C1647.2,1432.6,1663.2,1545.7,1663.2,1663.4z"/>
					<path class="st2" d="M1457,1618c1.4-23.2,2-46.6,2-70.1c0.2-114.1-31.6-225.9-91.9-322.8c-91.5,94.8-199.9,165.1-318.7,202.7
						c1.6,10.4,2.5,20.9,2.5,31.4c0,112.7-91.3,306.1-204,306.1s-204-193.3-204-306.1c0-10.5,0.8-21,2.5-31.4
						c-118.8-37.6-227.1-107.9-318.7-202.7c-60.3,96.9-92.1,208.7-91.9,322.8c0,23.5,0.7,46.9,2,70.1
						c-70.7-88.1-125.5-186-160.8-290.6C187.1,929,490.3,643.1,847,643.1s659.8,285.9,770.8,684.3
						C1582.6,1432,1527.8,1529.9,1457,1618z"/>
					<path class="st2" d="M1459.1,1548c0,23.5-0.7,46.9-2,70.1c-145.7,181.3-359.1,321.5-610.1,395.4
						c-251-73.9-464.4-214.1-610.1-395.4c-1.4-23.2-2-46.6-2-70.1c-0.2-114.1,31.6-225.9,91.9-322.8
						c91.5,94.8,199.9,165.1,318.7,202.7c-1.6,10.4-2.5,20.9-2.5,31.4c0,112.7,91.3,306,204,306s204-193.3,204-306.1
						c0-10.5-0.8-21-2.5-31.4c118.8-37.7,227.2-107.9,318.7-202.7C1427.5,1322.1,1459.3,1433.9,1459.1,1548z"/>
					<path class="st2" d="M1457,1618c-8.7,156.3-47.4,309.4-114.1,451c-167.5,10.2-343.1-9.9-496-55.6
						C1082.5,1944.1,1302.4,1810.4,1457,1618z"/>
					<path class="st2" d="M236.9,1618c8.7,156.2,47.4,309.4,114.1,450.9c167.5,10.2,343.1-9.9,496-55.6
						C611.5,1944.1,391.6,1810.4,236.9,1618z"/>
					<path class="st2" d="M1255.1,2071.5c29.5,0,58.9-0.9,87.9-2.5c-96.8,205.2-248.5,379.7-438.4,503.9c-1.6,1.2-3.2,2.3-4.9,3.2
						c-31,18.9-69.7,19.8-101.5,2.5l-0.5-0.3c-4.5-3-9-5.9-13.5-8.9C596.7,2445.4,446.9,2272.3,351,2069c29,1.7,58.4,2.5,87.9,2.5
						c143.1,0,280.4-20.4,408.1-58.1C974.6,2051.1,1112,2071.5,1255.1,2071.5z"/>
					<path class="st2" d="M1367.2,1225.2c-91.5,94.8-199.9,165.1-318.7,202.7c-17.4-111.3-121.8-187.4-233.1-170
						c-87.6,13.7-156.3,82.4-170,170c-118.8-37.7-227.2-107.9-318.7-202.7C434.8,1051.5,627.4,935.9,847,935.9
						S1259.2,1051.5,1367.2,1225.2z"/>
					<path class="st2" d="M1051,1459.3c0,112.8-91.3,306-204,306s-204.1-193.2-204.1-306c0-16.7,2-33.3,6.1-49.4
						c0.8-3,1.5-5.8,2.4-8.8s1.8-5.8,2.7-8.7s2.1-5.7,3.2-8.4s2.3-5.6,3.5-8.3c3.6-8.1,7.8-15.9,12.4-23.4c1.4-2.4,3-4.7,4.5-6.9
						c3.1-4.8,6.6-9.4,10.2-13.8c2.1-2.7,4.4-5.4,6.7-7.9c1.9-2.2,3.9-4.4,6-6.5c1.4-1.5,2.8-3,4.4-4.4c4-4,8.2-7.7,12.6-11.3
						c2.4-2,4.7-3.8,7.2-5.6c2.6-2,5.3-3.9,8-5.7c2.1-1.5,4.4-3,6.6-4.3c12-7.4,24.7-13.6,37.9-18.4c3-1.1,5.9-2.1,8.9-3
						c3.2-1,6.5-2,9.8-2.7s6.4-1.7,9.6-2.3h0.4c1.9-0.5,3.9-0.8,5.8-1.1c2.3-0.4,4.6-0.8,6.8-1.1c2.4-0.3,4.9-0.7,7.4-0.9
						c1.9-0.2,3.8-0.4,5.8-0.5l5.5-0.3c3.2-0.1,6.4-0.2,9.5-0.2s6.3,0.1,9.5,0.2l5.5,0.3c2,0.1,3.8,0.3,5.7,0.5
						c2.5,0.2,5,0.4,7.4,0.9c2.2,0.2,4.4,0.6,6.6,1c2.1,0.3,4.2,0.8,6.1,1.2h0.4c3.3,0.7,6.5,1.4,9.6,2.3s6.5,1.8,9.7,2.7
						c2.6,0.8,5,1.5,7.6,2.5c4.3,1.4,8.5,3.1,12.6,4.9c2.7,1.1,5.5,2.4,8.2,3.7c6,3,11.9,6.1,17.7,9.6c2.5,1.5,4.9,3.2,7.3,4.8
						c2.7,1.8,5.5,3.7,8,5.7c2.5,1.8,4.8,3.6,7.2,5.6c4.4,3.6,8.6,7.3,12.6,11.3c1.5,1.4,3,2.8,4.4,4.4c4.5,4.5,8.8,9.3,12.7,14.4
						c3.6,4.4,7,9,10.2,13.8c1.5,2.2,3.1,4.5,4.5,6.9c4.5,7.3,8.5,14.8,12,22.6c0.3,0.6,0.6,1.3,0.9,2c1.1,2.4,2.1,4.8,3,7.2
						c1.2,2.7,2.2,5.6,3.2,8.4s2,5.7,2.7,8.7s1.6,5.8,2.4,8.8C1048.9,1426.1,1051,1442.7,1051,1459.3z"/>
					<path class="st2" d="M660.9,1375.7c3.5-8.1,7.7-16,12.4-23.4C668.7,1359.8,664.5,1367.6,660.9,1375.7z"/>
				</g>
			</g>
		</g>
	</g>
</g>
</svg>
