<?xml version="1.0" encoding="utf-8"?>
<!-- Generator: Adobe Illustrator 25.4.1, SVG Export Plug-In . SVG Version: 6.00 Build 0)  -->
<svg version="1.1" id="Capa_1" xmlns="http://www.w3.org/2000/svg" xmlns:xlink="http://www.w3.org/1999/xlink" x="0px" y="0px"
	 viewBox="0 0 1698.5 2560" style="enable-background:new 0 0 1698.5 2560;" xml:space="preserve">
<style type="text/css">
	.st0{clip-path:url(#SVGID_00000170236626889442144500000016774934737925687963_);}
	.st1{opacity:0.2;}
	.st2{fill:none;stroke:#F8B133;stroke-width:62;stroke-miterlimit:10;}
</style>
<g id="Capa_2_00000054976361306498112080000005083060387626523053_">
	<g id="fondos">
		<g>
			<g>
				<g>
					<g>
						<defs>
							<rect id="SVGID_1_" x="251.8" width="1442.3" height="2560"/>
						</defs>
						<clipPath id="SVGID_00000053534829391475152470000011072952139857198742_">
							<use xlink:href="#SVGID_1_"  style="overflow:visible;"/>
						</clipPath>
						<g style="clip-path:url(#SVGID_00000053534829391475152470000011072952139857198742_);">
							<g class="st1">
								<path class="st2" d="M1898.2,204c0,112.7-91.4,306.1-204.1,306.1s-204-193.4-204-306.1s91.3-204,204-204
									S1898.2,91.4,1898.2,204z"/>
								<path class="st2" d="M1198.2,2038c-95-17.9-245,9.8-283.1-100.7c-52-201.2-48.9-442.5,8.2-640.9
									c35.2,104.6,90,202.5,160.8,290.6C1092.8,1743.3,1131.5,1896.4,1198.2,2038z"/>
								<path class="st2" d="M2510.4,1632.4c-19.8,291.1,15.9,402.3-320.2,405.6c66.7-141.6,105.4-294.7,114.1-451
									c70.7-88.1,125.5-186,160.8-290.6C2494.4,1401.6,2510.4,1514.7,2510.4,1632.4z"/>
								<path class="st2" d="M2304.2,1587c1.4-23.2,2-46.6,2-70.1c0.2-114.1-31.6-225.9-91.9-322.8
									c-91.5,94.8-199.9,165.1-318.7,202.7c1.6,10.4,2.5,20.9,2.5,31.4c0,112.7-91.3,306.1-204,306.1s-204-193.3-204-306.1
									c0-10.5,0.8-21,2.5-31.4c-118.8-37.6-227.1-107.9-318.7-202.7c-60.3,96.9-92.1,208.7-91.9,322.8c0,23.5,0.7,46.9,2,70.1
									c-70.7-88.1-125.5-186-160.8-290.6c111-398.4,414.2-684.3,770.8-684.3s659.9,285.9,771,684.3
									C2429.8,1401,2375,1498.9,2304.2,1587z"/>
								<path class="st2" d="M2306.3,1517c0,23.5-0.7,46.9-2,70.1c-145.6,181.3-359.1,321.5-610.1,395.4
									c-251-73.9-464.4-214.1-610.1-395.4c-1.4-23.2-2-46.6-2-70.1c-0.2-114.1,31.6-225.9,91.9-322.8
									c91.5,94.8,199.9,165.1,318.7,202.7c-1.6,10.4-2.5,20.9-2.5,31.4c0,112.7,91.3,306,204,306s204-193.3,204-306.1
									c0-10.5-0.8-21-2.5-31.4c118.8-37.7,227.2-107.9,318.7-202.7C2274.7,1291.1,2306.5,1402.9,2306.3,1517z"/>
								<path class="st2" d="M2304.2,1587c-8.7,156.3-47.4,309.4-114.1,451c-167.5,10.2-343.1-9.9-496-55.6
									C1929.7,1913.1,2149.6,1779.4,2304.2,1587z"/>
								<path class="st2" d="M1084.1,1587c8.7,156.2,47.4,309.4,114.1,450.9c167.5,10.2,343.1-9.9,496-55.6
									C1458.7,1913.1,1238.8,1779.4,1084.1,1587z"/>
								<path class="st2" d="M2102.3,2040.5c29.5,0,58.9-0.9,87.9-2.5c-96.8,205.2-248.5,379.7-438.4,503.9
									c-1.6,1.2-3.2,2.3-4.9,3.2c-31,18.9-69.7,19.8-101.5,2.5l-0.5-0.3c-4.5-3-9-5.9-13.5-8.9
									c-187.4-124.1-337.2-297.2-433.1-500.4c29,1.7,58.4,2.5,87.9,2.5c143.1,0,280.4-20.4,408.1-58.1
									C1821.8,2020.1,1959.2,2040.5,2102.3,2040.5z"/>
								<path class="st2" d="M2214.4,1194.2c-91.5,94.8-199.9,165.1-318.7,202.7c-17.4-111.3-121.8-187.4-233.1-170
									c-87.6,13.7-156.3,82.4-170,170c-118.8-37.7-227.2-107.9-318.7-202.7c108.1-173.7,300.6-289.3,520.2-289.3
									S2106.4,1020.5,2214.4,1194.2z"/>
								<path class="st2" d="M1898.2,1428.3c0,112.8-91.3,306-204,306s-204.1-193.2-204.1-306c0-16.7,2-33.3,6.1-49.4
									c0.8-3,1.5-5.8,2.4-8.8s1.8-5.8,2.7-8.7s2.1-5.7,3.2-8.4s2.3-5.6,3.5-8.3c3.6-8.1,7.8-15.9,12.4-23.4c1.4-2.4,3-4.7,4.5-6.9
									c3.1-4.8,6.6-9.4,10.2-13.8c2.1-2.7,4.4-5.4,6.7-7.9c1.9-2.2,3.9-4.4,6-6.5c1.4-1.5,2.8-3,4.4-4.4c4-4,8.2-7.7,12.6-11.3
									c2.4-2,4.7-3.8,7.2-5.6c2.6-2,5.3-3.9,8-5.7c2.1-1.5,4.4-3,6.6-4.3c12-7.4,24.7-13.6,37.9-18.4c3-1.1,5.9-2.1,8.9-3
									c3.2-1,6.5-2,9.8-2.7s6.4-1.7,9.6-2.3h0.4c1.9-0.5,3.9-0.8,5.8-1.1c2.3-0.4,4.6-0.8,6.8-1.1c2.4-0.3,4.9-0.7,7.4-0.9
									c1.9-0.2,3.8-0.4,5.8-0.5l5.5-0.3c3.2-0.1,6.4-0.2,9.5-0.2s6.3,0.1,9.5,0.2l5.5,0.3c2,0.1,3.8,0.3,5.7,0.5
									c2.5,0.2,5,0.4,7.4,0.9c2.2,0.2,4.4,0.6,6.6,1c2.1,0.3,4.2,0.8,6.1,1.2h0.4c3.3,0.7,6.5,1.4,9.6,2.3s6.5,1.8,9.7,2.7
									c2.6,0.8,5,1.5,7.6,2.5c4.3,1.4,8.5,3.1,12.6,4.9c2.7,1.1,5.5,2.4,8.2,3.7c6,3,11.9,6.1,17.7,9.6c2.5,1.5,4.9,3.2,7.3,4.8
									c2.7,1.8,5.5,3.7,8,5.7c2.5,1.8,4.8,3.6,7.2,5.6c4.4,3.6,8.6,7.3,12.6,11.3c1.5,1.4,3,2.8,4.4,4.4
									c4.5,4.5,8.8,9.3,12.7,14.4c3.6,4.4,7,9,10.2,13.8c1.5,2.2,3.1,4.5,4.5,6.9c4.5,7.3,8.5,14.8,12,22.6c0.3,0.6,0.6,1.3,0.9,2
									c1.1,2.4,2.1,4.8,3,7.2c1.2,2.7,2.2,5.6,3.2,8.4s2,5.7,2.7,8.7s1.6,5.8,2.4,8.8C1896.1,1395.1,1898.2,1411.7,1898.2,1428.3z
									"/>
								<path class="st2" d="M1508.1,1344.7c3.5-8.1,7.7-16,12.4-23.4C1515.9,1328.8,1511.7,1336.6,1508.1,1344.7z"/>
							</g>
						</g>
					</g>
				</g>
			</g>
		</g>
	</g>
</g>
</svg>
