<?xml version="1.0" encoding="utf-8"?>
<!-- Generator: Adobe Illustrator 25.4.1, SVG Export Plug-In . SVG Version: 6.00 Build 0)  -->
<svg version="1.1" id="Capa_1" xmlns="http://www.w3.org/2000/svg" xmlns:xlink="http://www.w3.org/1999/xlink" x="0px" y="0px"
	 viewBox="0 0 1002.5 377" style="enable-background:new 0 0 1002.5 377;" xml:space="preserve">
<style type="text/css">
	.st0{clip-path:url(#SVGID_00000163073344142830447740000010348939602187281328_);}
	.st1{fill:none;stroke:#FFFFFF;stroke-width:5.72;stroke-miterlimit:10;}
</style>
<g id="Capa_2_00000117672243407585476960000011473515005006317974_">
	<g id="fotos">
		<g>
			<defs>
				<path id="SVGID_1_" d="M51.6,3.5h900c26.5,0,48,21.5,48,48v274.7c0,26.5-21.5,48-48,48h-900c-26.5,0-48-21.5-48-48V51.5
					C3.6,25,25.1,3.5,51.6,3.5z"/>
			</defs>
			<clipPath id="SVGID_00000052822169324404973540000001214050169251418755_">
				<use xlink:href="#SVGID_1_"  style="overflow:visible;"/>
			</clipPath>
			<g style="clip-path:url(#SVGID_00000052822169324404973540000001214050169251418755_);">
				
					<image style="overflow:visible;enable-background:new    ;" width="1131" height="754" xlink:href="F0F664BE.png"  transform="matrix(0.8952 0 0 0.8952 -10 -255)">
				</image>
			</g>
		</g>
	</g>
	<g id="pantallas_emergentes">
		<path class="st1" d="M155.2,90.6c0,10.3-8.3,27.9-18.6,27.9s-18.6-17.6-18.6-27.9c0-10.3,8.3-18.6,18.6-18.6
			C146.9,72,155.2,80.4,155.2,90.6z"/>
		<path class="st1" d="M91.3,258c-8.7-1.6-22.3,0.9-25.8-9.2c-4.7-19.2-4.5-39.4,0.8-58.5c3.3,9.6,8.3,18.6,14.7,26.5
			C81.7,231.1,85.2,245.1,91.3,258z"/>
		<path class="st1" d="M211,221c-1.8,26.6,1.4,36.7-29.2,37c6.1-12.9,9.6-26.9,10.4-41.1c6.4-7.9,11.4-16.9,14.7-26.5
			C209.7,200.3,211.1,210.6,211,221z"/>
		<path class="st1" d="M192.2,216.8c0.1-2.1,0.2-4.3,0.2-6.4c0-10.4-2.9-20.6-8.4-29.4c-8,8.5-18,14.8-29.1,18.5
			c0.1,0.9,0.2,1.9,0.2,2.9c0,10.3-8.3,27.9-18.6,27.9S118,212.6,118,202.4c0-1,0.1-1.9,0.2-2.9c-11.1-3.6-21.1-10-29.1-18.5
			c-5.5,8.8-8.4,19.1-8.4,29.5c0,2.2,0.1,4.3,0.2,6.4c-6.4-7.9-11.4-16.9-14.7-26.5c10.1-36.4,37.8-62.5,70.3-62.5
			s60.2,26.1,70.3,62.4C203.6,199.9,198.6,208.9,192.2,216.8z"/>
		<path class="st1" d="M192.4,210.5c0,2.2-0.1,4.3-0.2,6.4c-13.3,16.5-32.8,29.3-55.7,36.1c-22.9-6.7-42.4-19.5-55.7-36.1
			c-0.1-2.1-0.2-4.3-0.2-6.4c0-10.4,2.9-20.6,8.4-29.4c8,8.5,18,14.8,29.1,18.4c-0.1,0.9-0.2,1.9-0.2,2.9c0,10.3,8.3,27.9,18.6,27.9
			s18.6-17.6,18.6-27.9c0-1-0.1-1.9-0.2-2.9c11.1-3.6,21.1-10,29.1-18.5C189.5,189.8,192.4,200.1,192.4,210.5z"/>
		<path class="st1" d="M192.2,216.8c-0.8,14.3-4.3,28.2-10.4,41.1c-15.3,0.9-30.6-0.8-45.2-5.1C158.1,246.6,178.1,234.4,192.2,216.8
			z"/>
		<path class="st1" d="M80.9,216.8c0.8,14.3,4.3,28.2,10.4,41.1c15.3,0.9,30.6-0.8,45.3-5.1C115.1,246.6,95,234.4,80.9,216.8z"/>
		<path class="st1" d="M173.8,258.2c2.7,0,5.4-0.1,8-0.2c-8.8,18.7-22.7,34.7-40,46c-0.1,0.1-0.3,0.2-0.4,0.3
			c-2.8,1.7-6.4,1.8-9.3,0.2l0,0l-1.2-0.8c-17.1-11.3-30.8-27.1-39.5-45.7c2.6,0.1,5.3,0.2,8,0.2c12.6,0,25.1-1.8,37.2-5.3
			C148.7,256.5,161.2,258.2,173.8,258.2z"/>
		<path class="st1" d="M184,181c-8,8.5-18,14.8-29.1,18.5c-1.6-10.2-11.1-17.1-21.2-15.5c-8,1.2-14.3,7.5-15.5,15.5
			c-11.1-3.6-21.1-10-29.1-18.5c16.3-26.2,50.7-34.3,77-18C173.4,167.5,179.5,173.7,184,181z"/>
		<path class="st1" d="M155.2,202.4c0,10.3-8.3,27.9-18.6,27.9s-18.6-17.6-18.6-27.9c0-1.5,0.2-3,0.6-4.5c0.1-0.3,0.1-0.5,0.2-0.8
			s0.2-0.5,0.2-0.8s0.2-0.5,0.3-0.8s0.2-0.5,0.3-0.8c0.3-0.7,0.7-1.5,1.1-2.1c0.1-0.2,0.3-0.4,0.4-0.6c0.3-0.4,0.6-0.9,0.9-1.3
			c0.2-0.2,0.4-0.5,0.6-0.7s0.4-0.4,0.6-0.6s0.3-0.3,0.4-0.4c0.4-0.4,0.8-0.7,1.2-1c0.2-0.2,0.4-0.4,0.7-0.5s0.5-0.4,0.7-0.5
			s0.4-0.3,0.6-0.4c1.1-0.7,2.3-1.2,3.5-1.7l0.8-0.3c0.3-0.1,0.6-0.2,0.9-0.2c0.3-0.1,0.6-0.1,0.9-0.2l0,0c0.2,0,0.4-0.1,0.5-0.1
			l0.6-0.1l0.7-0.1l0.5-0.1h0.5h0.9h0.9h0.5l0.5,0.1c0.2,0,0.5,0,0.7,0.1l0.6,0.1l0.6,0.1l0,0c0.3,0.1,0.6,0.1,0.9,0.2
			s0.6,0.2,0.9,0.2s0.5,0.1,0.7,0.2c0.4,0.1,0.8,0.3,1.1,0.4c0.2,0.1,0.5,0.2,0.8,0.3c0.6,0.3,1.1,0.6,1.6,0.9
			c0.2,0.1,0.4,0.3,0.7,0.4s0.5,0.3,0.7,0.5c0.2,0.2,0.4,0.3,0.7,0.5c0.4,0.3,0.8,0.7,1.1,1c0.1,0.1,0.3,0.3,0.4,0.4
			c0.4,0.4,0.8,0.9,1.2,1.3c0.3,0.4,0.6,0.8,0.9,1.3c0.1,0.2,0.3,0.4,0.4,0.6c0.4,0.7,0.8,1.3,1.1,2.1c0,0.1,0.1,0.1,0.1,0.2
			c0.1,0.2,0.2,0.4,0.3,0.7c0.1,0.2,0.2,0.5,0.3,0.8s0.2,0.5,0.2,0.8s0.1,0.5,0.2,0.8C154.9,199.3,155.2,200.8,155.2,202.4z"/>
		<path class="st1" d="M119.6,194.7c0.3-0.7,0.7-1.5,1.1-2.1C120.3,193.3,119.9,194,119.6,194.7z"/>
	</g>
</g>
</svg>
