<svg xmlns="http://www.w3.org/2000/svg" viewBox="0 0 60.29 60.29"><defs><style>.cls-1{fill:#eb672f;}</style></defs><g id="Capa_2" data-name="Capa 2"><g id="iconos"><path class="cls-1" d="M28.56,38.28a2.17,2.17,0,0,0,1.58.68,2.2,2.2,0,0,0,1.59-.68l9.87-9.87a2.1,2.1,0,0,0,.6-1.55,2.25,2.25,0,0,0-.68-1.62,2.5,2.5,0,0,0-1.58-.64,2.06,2.06,0,0,0-1.58.64l-8.22,8.22-8.29-8.29a2.08,2.08,0,0,0-1.54-.6A2.31,2.31,0,0,0,18,26.83a2.17,2.17,0,0,0,.68,1.58Zm1.58,22A30.56,30.56,0,0,1,18.24,58,29.2,29.2,0,0,1,2.3,42.05,30.64,30.64,0,0,1,0,30.14,30.42,30.42,0,0,1,2.3,18.31,29.22,29.22,0,0,1,8.67,8.74,30.1,30.1,0,0,1,30.14,0,29.91,29.91,0,0,1,60.29,30.14,30.13,30.13,0,0,1,58,42.05a29.8,29.8,0,0,1-6.41,9.57A29.37,29.37,0,0,1,42,58,30.39,30.39,0,0,1,30.14,60.29Zm0-4.53A25.08,25.08,0,0,0,55.76,30.14,25.1,25.1,0,0,0,30.14,4.52,25.11,25.11,0,0,0,4.52,30.14,25.1,25.1,0,0,0,30.14,55.76Z"/></g></g></svg>