<svg xmlns="http://www.w3.org/2000/svg" viewBox="0 0 126 197.63"><defs><style>.cls-1{fill:#f8b133;}.cls-2{fill:none;stroke:#60398d;stroke-miterlimit:10;stroke-width:0.65px;}.cls-3{fill:#522974;}.cls-4{fill:#e52143;}.cls-5{fill:#a8172e;}.cls-6{fill:#eb672f;}.cls-7{fill:#fdf3f8;}</style></defs><g id="Capa_2" data-name="Capa 2"><g id="vectores"><path class="cls-1" d="M78.74,15.75c0,8.7-7,23.63-15.75,23.63S47.24,24.45,47.24,15.75a15.75,15.75,0,1,1,31.5,0Z"/><path class="cls-2" d="M78.55,107.84a51.23,51.23,0,0,1-31.12,0,15.75,15.75,0,0,1,31.12,0Z"/><path class="cls-3" d="M24.7,157.33c-7.34-1.38-18.91.75-21.85-7.78a98.34,98.34,0,0,1,.64-49.47A72.86,72.86,0,0,0,15.9,122.51,94.07,94.07,0,0,0,24.7,157.33Z"/><path class="cls-3" d="M126,126c-1.53,22.47,1.23,31.06-24.72,31.31a94,94,0,0,0,8.81-34.82,73.28,73.28,0,0,0,12.41-22.43A96.4,96.4,0,0,1,126,126Z"/><path class="cls-4" d="M110.09,122.51c.1-1.78.15-3.59.15-5.4a47,47,0,0,0-7.09-24.92,59.28,59.28,0,0,1-24.6,15.65,16.12,16.12,0,0,1,.19,2.42c0,8.71-7,23.63-15.75,23.63S47.24,119,47.24,110.26a16.12,16.12,0,0,1,.19-2.42,59.34,59.34,0,0,1-24.6-15.65,47,47,0,0,0-7.09,24.92c0,1.81,0,3.62.16,5.4A72.86,72.86,0,0,1,3.49,100.08c8.57-30.76,32-52.83,59.5-52.83s50.93,22.07,59.51,52.83A73.28,73.28,0,0,1,110.09,122.51Z"/><path class="cls-1" d="M110.24,117.11c0,1.81,0,3.62-.15,5.4C98.84,136.51,82.37,147.33,63,153c-19.38-5.71-35.85-16.53-47.09-30.53-.11-1.78-.16-3.59-.16-5.4a47,47,0,0,1,7.09-24.92,59.34,59.34,0,0,0,24.6,15.65,16.12,16.12,0,0,0-.19,2.42c0,8.71,7,23.63,15.75,23.63S78.74,119,78.74,110.26a16.12,16.12,0,0,0-.19-2.42,59.28,59.28,0,0,0,24.6-15.65A47,47,0,0,1,110.24,117.11Z"/><path class="cls-5" d="M110.09,122.51a94,94,0,0,1-8.81,34.82A113,113,0,0,1,63,153C81.17,147.69,98.15,137.37,110.09,122.51Z"/><path class="cls-5" d="M15.9,122.51a94,94,0,0,0,8.8,34.81A112.79,112.79,0,0,0,63,153C44.81,147.69,27.84,137.36,15.9,122.51Z"/><path class="cls-1" d="M94.5,157.52c2.27,0,4.54-.06,6.78-.19a94.88,94.88,0,0,1-33.84,38.9,4.13,4.13,0,0,1-.38.25,7.83,7.83,0,0,1-7.84.19l0,0-1-.69A95,95,0,0,1,24.7,157.33c2.24.13,4.51.19,6.79.19A111.58,111.58,0,0,0,63,153,111.65,111.65,0,0,0,94.5,157.52Z"/><path class="cls-6" d="M103.15,92.19a59.28,59.28,0,0,1-24.6,15.65,15.75,15.75,0,0,0-31.12,0,59.34,59.34,0,0,1-24.6-15.65,47.27,47.27,0,0,1,80.32,0Z"/><path class="cls-7" d="M78.74,110.26c0,8.71-7,23.63-15.75,23.63S47.24,119,47.24,110.26a15.75,15.75,0,1,1,31.5,0Z"/></g></g></svg>