<svg xmlns="http://www.w3.org/2000/svg" viewBox="0 0 99.98 154.71"><defs><style>.cls-1{fill:none;stroke:#fff;stroke-miterlimit:10;stroke-width:3.7px;}</style></defs><g id="Capa_2" data-name="Capa 2"><g id="pantallas_emergentes" data-name="pantallas emergentes"><path class="cls-1" d="M62,13.88c0,6.65-5.39,18.06-12,18.06S38,20.53,38,13.88a12,12,0,0,1,24.07,0Z"/><path class="cls-1" d="M20.72,122.07c-5.6-1.06-14.45.58-16.69-5.94a75.2,75.2,0,0,1,.48-37.81A56.12,56.12,0,0,0,14,95.47,72.13,72.13,0,0,0,20.72,122.07Z"/><path class="cls-1" d="M98.13,98.14c-1.17,17.18.94,23.74-18.89,23.93A71.88,71.88,0,0,0,86,95.47a55.91,55.91,0,0,0,9.48-17.15A73.49,73.49,0,0,1,98.13,98.14Z"/><path class="cls-1" d="M86,95.47q.12-2.06.12-4.14a35.91,35.91,0,0,0-5.42-19,45.22,45.22,0,0,1-18.8,12A11.27,11.27,0,0,1,62,86.1c0,6.65-5.39,18.06-12,18.06S38,92.75,38,86.1a12.49,12.49,0,0,1,.14-1.85,45.28,45.28,0,0,1-18.8-12,36,36,0,0,0-5.42,19q0,2.08.12,4.14A56.12,56.12,0,0,1,4.51,78.32C11.06,54.82,29,38,50,38S88.9,54.82,95.45,78.32A55.91,55.91,0,0,1,86,95.47Z"/><path class="cls-1" d="M86.09,91.33q0,2.08-.12,4.14c-8.59,10.69-21.18,19-36,23.32-14.8-4.36-27.39-12.63-36-23.32q-.12-2.06-.12-4.14a36,36,0,0,1,5.42-19,45.28,45.28,0,0,0,18.8,12A12.49,12.49,0,0,0,38,86.1c0,6.65,5.38,18.06,12,18.06S62,92.75,62,86.1a11.27,11.27,0,0,0-.15-1.85,45.22,45.22,0,0,0,18.8-12A35.91,35.91,0,0,1,86.09,91.33Z"/><path class="cls-1" d="M86,95.47a71.88,71.88,0,0,1-6.73,26.6A86.48,86.48,0,0,1,50,118.79C63.87,114.7,76.85,106.82,86,95.47Z"/><path class="cls-1" d="M14,95.46a72.08,72.08,0,0,0,6.73,26.61A86.48,86.48,0,0,0,50,118.79C36.09,114.7,23.12,106.81,14,95.46Z"/><path class="cls-1" d="M74.06,122.22c1.74,0,3.47,0,5.18-.15A72.52,72.52,0,0,1,53.38,151.8l-.29.19a6,6,0,0,1-3.12.87,5.91,5.91,0,0,1-2.87-.73h0l-.8-.53a72.58,72.58,0,0,1-25.55-29.52q2.58.15,5.19.15A85.12,85.12,0,0,0,50,118.79,85.13,85.13,0,0,0,74.06,122.22Z"/><path class="cls-1" d="M80.67,72.29a45.22,45.22,0,0,1-18.8,12,12,12,0,0,0-23.78,0,45.28,45.28,0,0,1-18.8-12,36.13,36.13,0,0,1,61.38,0Z"/><path class="cls-1" d="M62,86.1c0,6.66-5.39,18.06-12,18.06S38,92.76,38,86.1a11.66,11.66,0,0,1,.36-2.91c0-.18.09-.34.14-.52s.1-.34.16-.51.13-.34.19-.5.14-.33.21-.49a11.34,11.34,0,0,1,.73-1.38c.08-.14.17-.28.26-.41a10,10,0,0,1,.6-.81c.13-.17.26-.32.4-.47s.23-.26.35-.38l.26-.26c.24-.23.49-.45.75-.67l.42-.33c.16-.11.31-.23.47-.33a4.25,4.25,0,0,1,.39-.25,11.32,11.32,0,0,1,2.24-1.09l.52-.17.58-.17.57-.13h0l.35-.07.4-.06.44,0,.34,0h.32l.57,0,.56,0h.32l.34,0a3.29,3.29,0,0,1,.44,0,2.32,2.32,0,0,1,.38.06l.37.07h0l.57.13.57.17.45.14c.25.09.5.19.74.3s.32.14.49.22c.35.17.7.36,1,.56l.43.29c.16.1.32.22.47.33l.43.33c.26.22.5.44.74.67a3.19,3.19,0,0,1,.26.26,7.6,7.6,0,0,1,.75.85,10,10,0,0,1,.6.81l.27.41a12,12,0,0,1,.71,1.33.61.61,0,0,1,.05.12c.06.14.12.28.17.42a4.29,4.29,0,0,1,.19.5,5,5,0,0,1,.16.51l.15.52A12.14,12.14,0,0,1,62,86.1Z"/><path class="cls-1" d="M39,81.17a9.1,9.1,0,0,1,.73-1.38A11.34,11.34,0,0,0,39,81.17Z"/></g></g></svg>