<svg xmlns="http://www.w3.org/2000/svg" viewBox="0 0 108 108"><defs><style>.cls-1{fill:#fff;}</style></defs><g id="Capa_2" data-name="Capa 2"><g id="variantes"><path class="cls-1" d="M27,83.1a4.61,4.61,0,1,0-3.15-1.35A4.32,4.32,0,0,0,27,83.1Zm0-24.6a4.61,4.61,0,1,0-3.15-1.35A4.32,4.32,0,0,0,27,58.5Zm0-24.6a4.46,4.46,0,0,0,3.15-7.65,4.46,4.46,0,1,0-6.3,6.3A4.32,4.32,0,0,0,27,33.9ZM46.8,83.1H83.4v-9H46.8Zm0-24.6H83.4v-9H46.8Zm0-24.6H83.4v-9H46.8ZM9,108a8.63,8.63,0,0,1-6.3-2.7A8.63,8.63,0,0,1,0,99V9A8.63,8.63,0,0,1,2.7,2.7,8.63,8.63,0,0,1,9,0H99a8.63,8.63,0,0,1,6.3,2.7A8.63,8.63,0,0,1,108,9V99a9.23,9.23,0,0,1-9,9Zm0-9H99V9H9ZM9,9V9Z"/></g></g></svg>