<svg xmlns="http://www.w3.org/2000/svg" viewBox="0 0 123.69 98.95"><defs><style>.cls-1{fill:#eb672f;}</style></defs><g id="Capa_2" data-name="Capa 2"><g id="iconos"><path class="cls-1" d="M54.89,81.33h46.54a4.5,4.5,0,0,0,4.63-4.64V46.07a4.48,4.48,0,0,0-4.63-4.63H54.89a4.48,4.48,0,0,0-4.64,4.63V76.69a4.5,4.5,0,0,0,4.64,4.64ZM9.28,99a8.93,8.93,0,0,1-6.5-2.78A8.93,8.93,0,0,1,0,89.67V9.28a8.93,8.93,0,0,1,2.78-6.5A8.93,8.93,0,0,1,9.28,0H114.41A8.83,8.83,0,0,1,121,2.78a9,9,0,0,1,2.71,6.5V89.67a9,9,0,0,1-2.71,6.5A8.83,8.83,0,0,1,114.41,99Zm0-9.28v0Zm0,0H114.41V9.28H9.28Z"/></g></g></svg>