<svg xmlns="http://www.w3.org/2000/svg" viewBox="0 0 126 147"><defs><style>.cls-1{fill:#eb672f;}</style></defs><g id="Capa_2" data-name="Capa 2"><g id="iconos"><path class="cls-1" d="M115.5,147H10.5a10.07,10.07,0,0,1-7.35-3.15A10.07,10.07,0,0,1,0,136.5V43.75A10.07,10.07,0,0,1,3.15,36.4a10.07,10.07,0,0,1,7.35-3.15H29.75A32.85,32.85,0,0,1,39,9.71,30.67,30.67,0,0,1,62.12,0a33.55,33.55,0,0,1,24,9.71A31.37,31.37,0,0,1,96.25,33.25H115.5A10.77,10.77,0,0,1,126,43.75V136.5A10.77,10.77,0,0,1,115.5,147ZM40.25,33.25h45.5A22.41,22.41,0,0,0,63,10.5,22.41,22.41,0,0,0,40.25,33.25ZM115.5,136.5V43.75H10.5V136.5ZM63,85.75q12.78,0,23.27-9T96.78,56.52a4.58,4.58,0,0,0-1.58-3.41,5.4,5.4,0,0,0-3.85-1.49,5,5,0,0,0-3.41,1.32,5.61,5.61,0,0,0-1.84,3.41,23.29,23.29,0,0,1-8.31,13.56,23.15,23.15,0,0,1-29.58,0A23.29,23.29,0,0,1,39.9,56.35,5.47,5.47,0,0,0,38,52.94a5.32,5.32,0,0,0-3.5-1.32,5.19,5.19,0,0,0-3.68,1.49,4.57,4.57,0,0,0-1.57,3.41q0,11.2,10.41,20.22A34.77,34.77,0,0,0,63,85.75Zm-52.5-42v0Z"/></g></g></svg>