<?xml version="1.0" encoding="utf-8"?>
<!-- Generator: Adobe Illustrator 25.4.1, SVG Export Plug-In . SVG Version: 6.00 Build 0)  -->
<svg version="1.1" id="Capa_1" xmlns="http://www.w3.org/2000/svg" xmlns:xlink="http://www.w3.org/1999/xlink" x="0px" y="0px"
	 viewBox="0 0 92.6 108" style="enable-background:new 0 0 92.6 108;" xml:space="preserve">
<style type="text/css">
	.st0{fill:#42B400;}
</style>
<g id="Capa_2_00000079461339818978658650000003321771483625566084_">
	<g id="iconos">
		<path class="st0" d="M84.9,108H7.7c-2,0-4-0.8-5.4-2.3c-1.5-1.4-2.3-3.4-2.3-5.4V32.1c0-2,0.8-4,2.3-5.4c1.4-1.5,3.4-2.3,5.4-2.3
			h14.2c-0.1-6.4,2.3-12.7,6.8-17.3C33,2.4,39.2-0.1,45.6,0c6.6-0.1,12.9,2.5,17.6,7.1c4.8,4.4,7.5,10.7,7.5,17.3h14.2
			c4.2,0.1,7.6,3.5,7.7,7.7v68.2C92.5,104.5,89.1,107.9,84.9,108z M29.6,24.4H63c0.1-9.1-7.1-16.6-16.2-16.7c-0.2,0-0.3,0-0.5,0
			c-9.1-0.1-16.6,7.1-16.7,16.2C29.6,24.1,29.6,24.3,29.6,24.4z M84.9,100.3V32.1H7.7v68.2H84.9z M46.3,63c6.3,0,12.4-2.4,17.1-6.6
			c5.1-4.4,7.7-9.4,7.7-14.9c0-1-0.4-1.9-1.2-2.5c-0.8-0.7-1.8-1.1-2.8-1.1c-0.9,0-1.8,0.4-2.5,1c-0.7,0.7-1.2,1.5-1.3,2.5
			c-0.8,3.9-3,7.5-6.1,10c-6.3,5.2-15.4,5.2-21.7,0c-3.2-2.5-5.3-6.1-6.1-10c-0.1-1-0.6-1.9-1.4-2.5c-0.7-0.6-1.6-1-2.6-1
			c-1,0-2,0.4-2.7,1.1c-0.7,0.6-1.1,1.5-1.2,2.5c0,5.5,2.5,10.4,7.6,14.9C33.8,60.6,39.9,63,46.3,63z M7.7,32.1L7.7,32.1z"/>
	</g>
</g>
</svg>
