<svg xmlns="http://www.w3.org/2000/svg" viewBox="0 0 67.33 82.9"><defs><style>.cls-1{fill:#fff;}</style></defs><g id="Capa_2" data-name="Capa 2"><g id="variantes"><path class="cls-1" d="M33.66,41A7.37,7.37,0,0,0,41,33.66a7.37,7.37,0,0,0-7.37-7.36,7.37,7.37,0,0,0-7.36,7.36A7.37,7.37,0,0,0,33.66,41Zm0,34.82q14-12.72,20.68-23.09T61,34.51q0-12.42-8-20.31A26.48,26.48,0,0,0,33.66,6.31a26.47,26.47,0,0,0-19.4,7.89Q6.31,22.09,6.31,34.51q0,7.89,6.84,18.25T33.66,75.85Zm.11,7.05a4.32,4.32,0,0,1-1.37-.21,3.69,3.69,0,0,1-1.15-.63Q15.58,68.28,7.79,56.49T0,34.51Q0,18.73,10.15,9.36A33.64,33.64,0,0,1,33.66,0,33.65,33.65,0,0,1,57.18,9.36q10.16,9.38,10.15,25.15,0,10.2-7.79,22T36.08,82.06a3.81,3.81,0,0,1-1.1.63A3.54,3.54,0,0,1,33.77,82.9Z"/></g></g></svg>