<svg xmlns="http://www.w3.org/2000/svg" viewBox="0 0 82.8 82.9"><defs><style>.cls-1{fill:#fff;}</style></defs><g id="Capa_2" data-name="Capa 2"><g id="variantes"><path class="cls-1" d="M6,82.9a5.76,5.76,0,0,1-4.2-1.8A5.76,5.76,0,0,1,0,76.9v-60a5.76,5.76,0,0,1,1.8-4.2A5.76,5.76,0,0,1,6,10.9H46.5l-6,6H6v60H66V42.1l6-6V76.9a6.15,6.15,0,0,1-6,6ZM54.2,11.7l4.3,4.2L30,44.3v8.6h8.5L67.1,24.3l4.2,4.2L42.8,57.1a6.16,6.16,0,0,1-1.95,1.3,5.91,5.91,0,0,1-2.35.5H27a2.91,2.91,0,0,1-3-3V44.4a5.91,5.91,0,0,1,.5-2.35,6.16,6.16,0,0,1,1.3-1.95ZM71.3,28.5,54.2,11.7l10-10A5.77,5.77,0,0,1,68.45,0,5.6,5.6,0,0,1,72.7,1.8l8.4,8.5a6,6,0,0,1,1.7,4.25A5.49,5.49,0,0,1,81,18.7Z"/></g></g></svg>