<svg xmlns="http://www.w3.org/2000/svg" viewBox="0 0 82.06 82.06"><defs><style>.cls-1{fill:#fff;}</style></defs><g id="Capa_2" data-name="Capa 2"><g id="variantes"><path class="cls-1" d="M30.05,47.18a13.64,13.64,0,0,1-10-4.15A13.62,13.62,0,0,1,15.9,33a13.62,13.62,0,0,1,4.15-10,13.65,13.65,0,0,1,10-4.16,13.62,13.62,0,0,1,10,4.16,13.63,13.63,0,0,1,4.16,10,13.63,13.63,0,0,1-4.16,10A13.61,13.61,0,0,1,30.05,47.18Zm0-6.15a7.67,7.67,0,0,0,5.7-2.36,8.13,8.13,0,0,0,0-11.33,8.11,8.11,0,0,0-11.34,0,8,8,0,0,0,0,11.33A7.73,7.73,0,0,0,30.05,41ZM60.93,51.9A10.86,10.86,0,0,1,50.06,41a10.88,10.88,0,0,1,18.56-7.69,10.89,10.89,0,0,1,0,15.38A10.47,10.47,0,0,1,60.93,51.9ZM35.08,75.49Q40,66.37,47.65,63T60.93,59.7a24.73,24.73,0,0,1,4.36.36,42.41,42.41,0,0,1,4.15,1A38.51,38.51,0,0,0,74,52,32,32,0,0,0,75.9,41,33.64,33.64,0,0,0,65.75,16.31,33.65,33.65,0,0,0,41,6.15,33.65,33.65,0,0,0,16.31,16.31,33.65,33.65,0,0,0,6.15,41a33.51,33.51,0,0,0,1.54,10.1A33.11,33.11,0,0,0,11.9,59.9a39.57,39.57,0,0,1,8.72-3.28,38.05,38.05,0,0,1,9.43-1.23,39.45,39.45,0,0,1,5.39.36,23.45,23.45,0,0,1,4.87,1.18,31.16,31.16,0,0,0-3.59,2.2,24.62,24.62,0,0,0-3,2.52,19.44,19.44,0,0,0-1.95-.11H30.05a32.47,32.47,0,0,0-7.54,1,34.82,34.82,0,0,0-7,2.41,37.43,37.43,0,0,0,9,6.92A31,31,0,0,0,35.08,75.49Zm6,6.57a39.76,39.76,0,0,1-15.9-3.23,41.31,41.31,0,0,1-21.9-21.9A39.76,39.76,0,0,1,0,41a39.65,39.65,0,0,1,3.23-16A41.45,41.45,0,0,1,25.13,3.23,39.76,39.76,0,0,1,41,0,39.68,39.68,0,0,1,57,3.23,41.58,41.58,0,0,1,78.83,25.08a39.65,39.65,0,0,1,3.23,16,39.76,39.76,0,0,1-3.23,15.9A41.45,41.45,0,0,1,57,78.83,39.68,39.68,0,0,1,41,82.06Z"/></g></g></svg>