<svg xmlns="http://www.w3.org/2000/svg" viewBox="0 0 126 126"><defs><style>.cls-1{fill:#eb672f;}.cls-2{fill:#fff;}</style></defs><g id="Capa_2" data-name="Capa 2"><g id="iconos"><circle class="cls-1" cx="63" cy="63" r="63"/><path class="cls-2" d="M63,81.73a14.66,14.66,0,0,0,14.88-15,14.23,14.23,0,0,0-4.29-10.54A14.46,14.46,0,0,0,63,52,14.51,14.51,0,0,0,48.12,66.76a14.58,14.58,0,0,0,4.25,10.68A14.34,14.34,0,0,0,63,81.73Zm0-5.25a9.27,9.27,0,0,1-6.91-2.76,9.51,9.51,0,0,1-2.71-7,9.24,9.24,0,0,1,2.71-6.82,10.11,10.11,0,0,1,13.78,0,9.16,9.16,0,0,1,2.75,6.82,9.43,9.43,0,0,1-2.75,7A9.33,9.33,0,0,1,63,76.48Zm-29.75,18A5.4,5.4,0,0,1,28,89.25V44.36a5.05,5.05,0,0,1,1.58-3.63,4.94,4.94,0,0,1,3.67-1.62H46.11L52.5,31.5h21l6.39,7.61H92.75A5.56,5.56,0,0,1,98,44.36V89.25a4.94,4.94,0,0,1-1.62,3.67,5.05,5.05,0,0,1-3.63,1.58Zm59.5-5.25V44.36H77.44l-6.39-7.61H55l-6.39,7.61H33.25V89.25Z"/></g></g></svg>