<svg xmlns="http://www.w3.org/2000/svg" viewBox="0 0 126 127.97"><defs><style>.cls-1{fill:#eb672f;}</style></defs><g id="Capa_2" data-name="Capa 2"><g id="iconos"><path class="cls-1" d="M37.8,128a11.53,11.53,0,1,1,0-23.06,11.23,11.23,0,0,1,8.09,3.36,11,11,0,0,1,3.44,8.17A11.49,11.49,0,0,1,37.8,128Zm64.06,0a11.53,11.53,0,1,1,8.09-19.7,11,11,0,0,1,3.44,8.17A11.49,11.49,0,0,1,101.86,128ZM29.47,22.26,47.09,58.78H93.21l20-36.52ZM36.2,94.65q-6.74,0-9.69-4.48t.08-10.09l10.25-18.9L12.49,9.61H4.64A4.35,4.35,0,0,1,1.36,8.17,4.94,4.94,0,0,1,0,4.64,4.46,4.46,0,0,1,1.36,1.36,4.67,4.67,0,0,1,4.8,0H15.7a4.64,4.64,0,0,1,2.56.72,5,5,0,0,1,1.76,2l4.64,9.93H119q5.13,0,6.49,3.13c.9,2.08.61,4.4-.89,7L103,61.66a15,15,0,0,1-4.48,4.73,10.78,10.78,0,0,1-6.25,2H43.72l-9,16.66h74A4.35,4.35,0,0,1,112,86.49a4.73,4.73,0,0,1,1.36,3.36,4.65,4.65,0,0,1-4.8,4.8ZM47.09,58.78h0Z"/></g></g></svg>