<svg xmlns="http://www.w3.org/2000/svg" viewBox="0 0 80 80"><defs><style>.cls-1{fill:#eb672f;}</style></defs><g id="Capa_2" data-name="Capa 2"><g id="fotos"><path class="cls-1" d="M37.9,50.8a2.9,2.9,0,0,0,4.2,0L55.2,37.7a2.79,2.79,0,0,0,.8-2.05,2.94,2.94,0,0,0-.9-2.15,3.28,3.28,0,0,0-2.1-.85,2.72,2.72,0,0,0-2.1.85L40,44.4l-11-11A2.79,2.79,0,0,0,27,32.6a2.94,2.94,0,0,0-2.15.9,2.9,2.9,0,0,0,0,4.2ZM40,80a40.63,40.63,0,0,1-15.8-3A38.71,38.71,0,0,1,3.05,55.8,40.63,40.63,0,0,1,0,40,40.38,40.38,0,0,1,3.05,24.3,39,39,0,0,1,11.5,11.6,39.88,39.88,0,0,1,40,0,39.68,39.68,0,0,1,80,40,39.88,39.88,0,0,1,68.4,68.5,39,39,0,0,1,55.7,77,40.38,40.38,0,0,1,40,80Zm0-6q14.51,0,24.25-9.75T74,40q0-14.51-9.75-24.25T40,6Q25.49,6,15.75,15.75T6,40q0,14.51,9.75,24.25T40,74Z"/></g></g></svg>