<svg xmlns="http://www.w3.org/2000/svg" viewBox="0 0 78.99 79.15"><defs><style>.cls-1{fill:#eb672f;}</style></defs><g id="Capa_2" data-name="Capa 2"><g id="fotos"><path class="cls-1" d="M79,34.74c0-12.18-4.65-17-7.37-18.79.08-2.34-.21-6.45-2.82-9.56-2.2-2.6-5.44-3.92-9.65-3.92A14,14,0,0,0,49,6.28,25.46,25.46,0,0,0,23.37,1.61C16.66,4.27,12.58,9.78,12.24,16.43A19.79,19.79,0,0,0,2,26.59,23.33,23.33,0,0,0,5,50.45,14.47,14.47,0,0,0,2.3,59.31c0,4.21,1.33,7.46,3.93,9.65,3.11,2.61,7.19,2.9,9.56,2.82,1.78,2.73,6.6,7.37,18.79,7.37a23.53,23.53,0,0,0,15.56-5.29,30.54,30.54,0,0,0,3.13.19,20.69,20.69,0,0,0,15.09-5.89c4.38-4.45,6.23-10.76,5.35-17.87A23.52,23.52,0,0,0,79,34.74ZM59.15,7.4c2.67,0,4.64.73,5.86,2.16,2.31,2.73,1.58,7.35,1.57,7.39a2.54,2.54,0,0,0,1.69,2.77c.24.09,5.78,2.16,5.78,15,0,7.27-3.11,11.72-6,14.29a26.29,26.29,0,0,0,.31-12.77,2.4,2.4,0,0,0,.51-.84L71.36,28a2.47,2.47,0,1,0-4.68-1.56l-.91,2.71a27.22,27.22,0,0,0-6.42-7.88l2.09-8.36a2.47,2.47,0,0,0-4.79-1.19L55,18.3A27.07,27.07,0,0,0,49.35,16C49.84,13.12,51.75,7.4,59.15,7.4Zm-7.56,38s0,0,0-.06l2.47-7.4a2.47,2.47,0,0,0-4.68-1.56l-1.6,4.8A21,21,0,0,0,43,37.37a2.47,2.47,0,1,0-2.21,4.41c2.07,1,5.46,4.45,8.32,8.42L43.56,52a2.46,2.46,0,0,0,.79,4.8,2.69,2.69,0,0,0,.78-.12l6.68-2.23a19.44,19.44,0,0,1,2.3,6.06A21.73,21.73,0,0,1,39.43,64.1c-3.78-1.33-7-5-7.42-8.61-.32-2.69.9-4.81,3.62-6.32a2.47,2.47,0,0,0-.73-4.58c-2.59-.49-5.33-3.38-5.32-7.78a7.56,7.56,0,0,1,4.1-6.25c2.77-1.45,6.06-1,9.27,1.18A2.46,2.46,0,0,0,46.79,30c.08-.56.31-2.29,3.28-2.71,4-.59,10,1.8,11.76,5.86a2.41,2.41,0,0,0,.76.91A22,22,0,0,1,58.26,57,39.9,39.9,0,0,0,51.59,45.35ZM19.68,42a22.23,22.23,0,0,1,22.2-22.2,22,22,0,0,1,10.21,2.51,14.49,14.49,0,0,0-2.73.08,8.69,8.69,0,0,0-6.29,3.71,13,13,0,0,0-11.67,0,12.47,12.47,0,0,0-6.75,10.61A13.12,13.12,0,0,0,29.8,47.54a10.56,10.56,0,0,0-2.69,8.53A13.91,13.91,0,0,0,28,59.33,22.17,22.17,0,0,1,19.68,42ZM6.49,28.63a14.59,14.59,0,0,1,13.16-8.9,2.47,2.47,0,0,0-.15-4.93c-.73,0-1.44.12-2.15.22.77-3.95,3.51-7.11,7.84-8.82a20.77,20.77,0,0,1,20.88,4.08A17.57,17.57,0,0,0,44.5,15a25.25,25.25,0,0,0-2.62-.14A27.14,27.14,0,0,0,14.74,42c0,.89,0,1.76.13,2.62a17.43,17.43,0,0,0-6.22,2.41A18.34,18.34,0,0,1,6.49,28.63ZM19.58,68.5a2.46,2.46,0,0,0-2.79-1.75s-4.65.73-7.38-1.57C8,64,7.24,62,7.24,59.31c0-7.4,5.71-9.3,8.57-9.8a27.18,27.18,0,0,0,2.39,5.78l-6.52,1.63a2.46,2.46,0,1,0,1.19,4.78l8.35-2.08A27.21,27.21,0,0,0,29,65.93l-2.71.91a2.47,2.47,0,0,0,.78,4.81,2.71,2.71,0,0,0,.78-.13l7.4-2.47a2.46,2.46,0,0,0,.86-.5c.7.15,1.42.26,2.14.36.17,0,.32.13.5.18a2.48,2.48,0,0,0,.65.09,2.27,2.27,0,0,0,.58-.1c.63,0,1.25.1,1.89.1a27.29,27.29,0,0,0,7-.94c-2.57,2.87-7,6-14.29,6C21.72,74.22,19.64,68.67,19.58,68.5Zm45.26-3.8a15.53,15.53,0,0,1-10.38,4.37,19.93,19.93,0,0,0,2.08-3.89c0-.12,0-.24.05-.35.61-.4,1.19-.82,1.77-1.26l.07-.06a27.24,27.24,0,0,0,6.23-6.75A2.25,2.25,0,0,0,65,56.7a20.55,20.55,0,0,0,4-2.13A15.13,15.13,0,0,1,64.84,64.7Z"/></g></g></svg>