<svg xmlns="http://www.w3.org/2000/svg" viewBox="0 0 137.85 134"><defs><style>.cls-1{fill:#eb672f;}</style></defs><g id="Capa_2" data-name="Capa 2"><g id="textos"><path class="cls-1" d="M0,97.18V7.24A7.19,7.19,0,0,1,2.24,2.41,6.39,6.39,0,0,1,6.89,0H96.32a6.68,6.68,0,0,1,4.83,2.33,7,7,0,0,1,2.24,4.91V68.58a7.15,7.15,0,0,1-2.24,4.82,6.58,6.58,0,0,1-4.83,2.42H27.57L4.48,98.91a2.51,2.51,0,0,1-2.84.6A2.29,2.29,0,0,1,0,97.18ZM10.34,10.34v0Zm24.29,99.94a6.7,6.7,0,0,1-4.73-2.41A7.07,7.07,0,0,1,27.57,103V86.16h86.15V27.57H131A6.42,6.42,0,0,1,135.61,30a7.35,7.35,0,0,1,2.24,5v96.49a2.29,2.29,0,0,1-1.64,2.33,2.51,2.51,0,0,1-2.84-.6l-22.92-22.92ZM93.05,10.34H10.34V65.48H93.05Z"/></g></g></svg>