<svg xmlns="http://www.w3.org/2000/svg" viewBox="0 0 134 134"><defs><style>.cls-1{fill:#eb672f;}</style></defs><g id="Capa_2" data-name="Capa 2"><g id="iconos"><path class="cls-1" d="M49.08,77.05a22.25,22.25,0,0,1-16.33-6.78A22.26,22.26,0,0,1,26,53.93,22.26,22.26,0,0,1,32.75,37.6a22.25,22.25,0,0,1,16.33-6.78A22.27,22.27,0,0,1,65.41,37.6a22.29,22.29,0,0,1,6.78,16.33A23.15,23.15,0,0,1,49.08,77.05Zm0-10a12.47,12.47,0,0,0,9.29-3.85,13.24,13.24,0,0,0,0-18.51,13.24,13.24,0,0,0-18.51,0,13,13,0,0,0,0,18.51A12.57,12.57,0,0,0,49.08,67ZM99.49,84.75A17.72,17.72,0,0,1,81.74,67a17.77,17.77,0,0,1,30.32-12.56,17.79,17.79,0,0,1,0,25.12A17.12,17.12,0,0,1,99.49,84.75ZM57.28,123.28q8-14.91,20.52-20.35t21.69-5.45a40.37,40.37,0,0,1,7.12.59,69.32,69.32,0,0,1,6.79,1.59,62.51,62.51,0,0,0,7.45-14.74A52,52,0,0,0,124,67q0-23.79-16.58-40.37T67,10.05q-23.79,0-40.37,16.58T10.05,67a55.16,55.16,0,0,0,9.38,30.82,65.08,65.08,0,0,1,14.24-5.36,62.13,62.13,0,0,1,15.41-2,64.77,64.77,0,0,1,8.79.59,38.79,38.79,0,0,1,8,1.92A51.2,51.2,0,0,0,60,96.56a40.21,40.21,0,0,0-4.85,4.11c-1.12-.11-2.18-.17-3.19-.17H49.08a52.85,52.85,0,0,0-12.31,1.59A56.92,56.92,0,0,0,25.29,106,61,61,0,0,0,40,117.33,50.8,50.8,0,0,0,57.28,123.28ZM67,134a64.76,64.76,0,0,1-26-5.28A67.42,67.42,0,0,1,5.28,93,64.76,64.76,0,0,1,0,67,64.63,64.63,0,0,1,5.28,41,67.66,67.66,0,0,1,41,5.28,64.76,64.76,0,0,1,67,0,64.63,64.63,0,0,1,93.05,5.28,67.91,67.91,0,0,1,128.72,41,64.63,64.63,0,0,1,134,67a64.76,64.76,0,0,1-5.28,26,67.66,67.66,0,0,1-35.67,35.76A64.63,64.63,0,0,1,67,134Z"/></g></g></svg>