<svg xmlns="http://www.w3.org/2000/svg" viewBox="0 0 134 134"><defs><style>.cls-1{fill:#eb672f;}</style></defs><g id="Capa_2" data-name="Capa 2"><g id="textos"><path class="cls-1" d="M67,134a65.19,65.19,0,0,1-26.13-5.28A66.89,66.89,0,0,1,5.28,93.13,65.19,65.19,0,0,1,0,67,65.19,65.19,0,0,1,5.28,40.87,66.89,66.89,0,0,1,40.87,5.28,65.19,65.19,0,0,1,67,0,65.19,65.19,0,0,1,93.13,5.28a66.89,66.89,0,0,1,35.59,35.59A65.19,65.19,0,0,1,134,67a65.19,65.19,0,0,1-5.28,26.13,66.89,66.89,0,0,1-35.59,35.59A65.19,65.19,0,0,1,67,134Zm-7.2-10.22V110.05a12.92,12.92,0,0,1-9.89-4.36,14.57,14.57,0,0,1-4-10.21V88.11L11.56,53.77a47.86,47.86,0,0,0-1.18,6.61A65.94,65.94,0,0,0,10.05,67,56.08,56.08,0,0,0,24.2,105,54,54,0,0,0,59.8,123.78ZM109,105.69a55.17,55.17,0,0,0,6.45-8.54,59.47,59.47,0,0,0,4.69-9.46A53.86,53.86,0,0,0,123,77.55,60.68,60.68,0,0,0,124,67,57.45,57.45,0,0,0,88.27,13.57v3a14.58,14.58,0,0,1-4,10.22,12.92,12.92,0,0,1-9.88,4.35H59.8V45.73a5.81,5.81,0,0,1-2.26,4.69,7.87,7.87,0,0,1-5.11,1.84H38.52V67H81.74a5.88,5.88,0,0,1,4.69,2.18,7.52,7.52,0,0,1,1.84,5V95.47h7.2A13.6,13.6,0,0,1,104,98.32,14.21,14.21,0,0,1,109,105.69Z"/></g></g></svg>