<svg xmlns="http://www.w3.org/2000/svg" viewBox="0 0 127.38 68.55"><defs><style>.cls-1{fill:#eb672f;}</style></defs><g id="Capa_2" data-name="Capa 2"><g id="iconos"><path class="cls-1" d="M10.13,68.55A4.13,4.13,0,0,1,7,67.25a4.47,4.47,0,0,1-1.23-3.19A4.09,4.09,0,0,1,7.09,61a4.47,4.47,0,0,1,3.19-1.23h107a4.21,4.21,0,0,1,4.34,4.34,4.44,4.44,0,0,1-4.49,4.49ZM8.54,30.19a3.7,3.7,0,0,1-1.59-2,2.76,2.76,0,0,1,.29-2.46l4-6.94H3.18a3.07,3.07,0,0,1-2.24-1A3.2,3.2,0,0,1,0,15.43a3.07,3.07,0,0,1,.94-2.25,3.26,3.26,0,0,1,2.39-.94h8l-4-6.95a2.9,2.9,0,0,1-.36-2.46A3.32,3.32,0,0,1,8.4.81,2.75,2.75,0,0,1,10.86.52a3.71,3.71,0,0,1,2,1.59l3.91,6.8,3.91-6.8a3,3,0,0,1,2-1.74,3.17,3.17,0,0,1,2.46.44,3.4,3.4,0,0,1,1.52,2,2.94,2.94,0,0,1-.37,2.46l-4.05,7H30.4a3.21,3.21,0,0,1,3.18,3.19,3.2,3.2,0,0,1-.94,2.38,3.06,3.06,0,0,1-2.24,1H22.29l4.05,6.94a3.1,3.1,0,0,1,.37,2.54,2.93,2.93,0,0,1-1.52,2,2.79,2.79,0,0,1-2.46.29,3.7,3.7,0,0,1-2-1.59l-3.91-6.81-3.91,6.81a3,3,0,0,1-2,1.73A3,3,0,0,1,8.54,30.19Zm46.75-.14A3.48,3.48,0,0,1,53.77,28a3.1,3.1,0,0,1,.37-2.54l4-6.94H50.08a3.06,3.06,0,0,1-2.24-.95,3.2,3.2,0,0,1-.94-2.38,3.07,3.07,0,0,1,.94-2.25A3.26,3.26,0,0,1,50.23,12h8L54.14,5a2.94,2.94,0,0,1-.37-2.46,3.4,3.4,0,0,1,1.52-2A2.76,2.76,0,0,1,57.75.23a3.7,3.7,0,0,1,2,1.59l3.91,6.8,3.91-6.8a3,3,0,0,1,2-1.74,3,3,0,0,1,2.39.44,3.68,3.68,0,0,1,1.59,2A2.75,2.75,0,0,1,73.24,5l-4,7H77.3a3.1,3.1,0,0,1,2.24.94,3.07,3.07,0,0,1,.94,2.25,3.2,3.2,0,0,1-.94,2.38,3.07,3.07,0,0,1-2.24.95H69.19l4,6.94A3.19,3.19,0,0,1,73.6,28a2.91,2.91,0,0,1-1.52,2,3.1,3.1,0,0,1-2.53.36,3.3,3.3,0,0,1-2.1-1.67l-3.76-6.66-3.76,6.66a3.77,3.77,0,0,1-2.1,1.6A3,3,0,0,1,55.29,30.05Zm46.9,0a3.44,3.44,0,0,1-1.52-2.1,3.13,3.13,0,0,1,.36-2.54l4.06-6.94H97a3.06,3.06,0,0,1-2.24-.95,3.2,3.2,0,0,1-.94-2.38,3.07,3.07,0,0,1,.94-2.25A3.26,3.26,0,0,1,97.13,12h8L101,5a3,3,0,0,1-.36-2.46,3.36,3.36,0,0,1,1.52-2,2.75,2.75,0,0,1,2.46-.29,3.7,3.7,0,0,1,2,1.59l3.91,6.8,3.91-6.8A3,3,0,0,1,116.38.08a3.3,3.3,0,0,1,2.46.44,3.68,3.68,0,0,1,1.59,2A2.78,2.78,0,0,1,120.14,5l-4,7h8.1a3.21,3.21,0,0,1,3.19,3.19,3.24,3.24,0,0,1-.94,2.38,3.08,3.08,0,0,1-2.25.95h-8.1l4,6.94A3.27,3.27,0,0,1,120.5,28a2.91,2.91,0,0,1-1.52,2,3.1,3.1,0,0,1-2.53.36,3.27,3.27,0,0,1-2.1-1.67l-3.76-6.66-3.77,6.66a3.71,3.71,0,0,1-2.09,1.6A3,3,0,0,1,102.19,30.05Z"/></g></g></svg>