<svg xmlns="http://www.w3.org/2000/svg" viewBox="0 0 111.9 111.9"><defs><style>.cls-1{fill:#eb672f;}</style></defs><g id="Capa_2" data-name="Capa 2"><g id="fotos"><path class="cls-1" d="M105.06,111.9,64.19,71a34.17,34.17,0,0,1-10.88,6.3A38.55,38.55,0,0,1,40.1,79.57,38.69,38.69,0,0,1,11.66,67.92,38.34,38.34,0,0,1,0,39.79,38.33,38.33,0,0,1,11.66,11.66,38.52,38.52,0,0,1,39.94,0,38.07,38.07,0,0,1,68,11.66,38.45,38.45,0,0,1,79.57,39.79a38.83,38.83,0,0,1-2.17,12.9,39.41,39.41,0,0,1-6.53,11.65l41,40.72ZM39.94,70.25a29.1,29.1,0,0,0,21.45-8.94,29.49,29.49,0,0,0,8.86-21.52,29.5,29.5,0,0,0-8.86-21.53A29.1,29.1,0,0,0,39.94,9.32a29.53,29.53,0,0,0-21.68,8.94A29.34,29.34,0,0,0,9.32,39.79a29.33,29.33,0,0,0,8.94,21.52A29.53,29.53,0,0,0,39.94,70.25Z"/></g></g></svg>