<svg xmlns="http://www.w3.org/2000/svg" viewBox="0 0 126 122.26"><defs><style>.cls-1{fill:#eb672f;}</style></defs><g id="Capa_2" data-name="Capa 2"><g id="iconos"><path class="cls-1" d="M63,59.06q-13,0-21.26-8.27T33.47,29.53q0-13,8.27-21.26T63,0Q76,0,84.26,8.27t8.27,21.26q0,13-8.27,21.26T63,59.06Zm51.19,63.2H11.81a11.36,11.36,0,0,1-8.36-3.45A11.36,11.36,0,0,1,0,110.45v-6.7A21.68,21.68,0,0,1,3.74,91a24,24,0,0,1,9.65-8.08A148.4,148.4,0,0,1,38.69,74a102.65,102.65,0,0,1,24.31-3,98.21,98.21,0,0,1,24.22,3.05,169.53,169.53,0,0,1,25.2,8.76A23.75,23.75,0,0,1,122.26,91,21.68,21.68,0,0,1,126,103.75v6.7a11.78,11.78,0,0,1-11.81,11.81ZM11.81,110.45H114.19v-6.7a10.82,10.82,0,0,0-1.87-6,11.82,11.82,0,0,0-4.63-4.23,104.62,104.62,0,0,0-23-8.37A101.89,101.89,0,0,0,63,82.88a104.52,104.52,0,0,0-21.85,2.27,100,100,0,0,0-23,8.37,11.83,11.83,0,0,0-6.3,10.23ZM63,47.25A17.17,17.17,0,0,0,80.72,29.53,17.17,17.17,0,0,0,63,11.81,17.17,17.17,0,0,0,45.28,29.53,17.17,17.17,0,0,0,63,47.25Z"/></g></g></svg>