<svg xmlns="http://www.w3.org/2000/svg" viewBox="0 0 163.78 134"><defs><style>.cls-1{fill:#fff;}</style></defs><g id="Capa_2" data-name="Capa 2"><g id="Capa_1-2" data-name="Capa 1"><g id="Capa_2-2" data-name="Capa 2"><g id="iconos"><path class="cls-1" d="M122.27,40.39h11.17V29.22H122.27Zm0,31.82h11.17V61H122.27Zm0,31.64h11.17V92.68H122.27ZM111.85,134V122.83h40.76V11.17H79.1V32L67.93,24.19v-13a10.79,10.79,0,0,1,3.26-7.91A10.81,10.81,0,0,1,79.1,0h73.51a10.77,10.77,0,0,1,7.91,3.26,10.71,10.71,0,0,1,3.26,7.91V122.83A11.12,11.12,0,0,1,152.69,134H111.85ZM0,128.42V67.19a11.64,11.64,0,0,1,1.21-5.12,9.87,9.87,0,0,1,3.44-4L43.92,30a11.41,11.41,0,0,1,13,0L96,58.07a9.75,9.75,0,0,1,3.45,4,11.68,11.68,0,0,1,1.21,5.12v61.23A5.42,5.42,0,0,1,95.41,134H60.3V96.59H40.57V134h-35A5.4,5.4,0,0,1,0,128.78Zm11.17-5.59H29.41V85.43H71.47v37.4h18V67.19l-39-28.11L11.17,67.19Zm60.3,0V85.43h0Z"/></g></g></g></g></svg>