<?xml version="1.0" encoding="utf-8"?>
<!-- Generator: Adobe Illustrator 25.4.1, SVG Export Plug-In . SVG Version: 6.00 Build 0)  -->
<svg version="1.1" id="Capa_1" xmlns="http://www.w3.org/2000/svg" xmlns:xlink="http://www.w3.org/1999/xlink" x="0px" y="0px"
	 viewBox="0 0 79 79.2" style="enable-background:new 0 0 79 79.2;" xml:space="preserve">
<style type="text/css">
	.st0{fill:#FFFFFF;}
</style>
<g id="Capa_2_00000160166907513375368760000001193096453683773880_">
	<g id="fotos">
		<path class="st0" d="M79,34.7c0-12.2-4.7-17-7.4-18.8c0.1-2.3-0.2-6.4-2.8-9.6c-2.2-2.6-5.4-3.9-9.7-3.9C55.4,2.3,51.7,3.7,49,6.3
			c-7-6.1-16.9-7.9-25.6-4.7c-6.7,2.7-10.8,8.2-11.1,14.8C7.7,18.4,4,22,2,26.6c-3.5,7.9-2.3,17.1,3,23.9c-1.8,2.6-2.8,5.7-2.7,8.9
			c0,4.2,1.3,7.5,3.9,9.6c3.1,2.6,7.2,2.9,9.6,2.8c1.8,2.7,6.6,7.4,18.8,7.4c5.7,0.2,11.2-1.7,15.6-5.3c1,0.1,2.1,0.2,3.1,0.2
			c5.6,0.2,11.1-2,15.1-5.9c4.4-4.5,6.2-10.8,5.3-17.9C77.3,45.9,79.2,40.4,79,34.7z M59.2,7.4c2.7,0,4.6,0.7,5.9,2.2
			c2.3,2.7,1.6,7.3,1.6,7.4c-0.2,1.2,0.5,2.4,1.7,2.8c0.2,0.1,5.8,2.2,5.8,15c0,7.3-3.1,11.7-6,14.3c1.2-4.2,1.3-8.6,0.3-12.8
			c0.2-0.2,0.4-0.5,0.5-0.8l2.5-7.4c0.5-1.3-0.1-2.7-1.4-3.2c-1.3-0.5-2.7,0.1-3.2,1.4c0,0.1-0.1,0.2-0.1,0.2l-0.9,2.7
			c-1.6-3-3.8-5.7-6.4-7.9l2.1-8.4c0.3-1.3-0.6-2.6-1.9-2.9c-1.3-0.3-2.5,0.5-2.9,1.7L55,18.3c-1.8-1-3.7-1.7-5.7-2.3
			C49.8,13.1,51.8,7.4,59.2,7.4z M51.6,45.4C51.6,45.4,51.6,45.4,51.6,45.4l2.5-7.5c0.4-1.3-0.4-2.7-1.7-3c-1.2-0.3-2.5,0.3-3,1.5
			l-1.6,4.8c-1.4-1.5-3-2.8-4.8-3.8c-1.2-0.7-2.7-0.3-3.4,0.9c-0.7,1.2-0.3,2.7,0.9,3.4c0.1,0,0.2,0.1,0.2,0.1
			c2.1,1,5.5,4.5,8.3,8.4L43.6,52c-1.3,0.4-2,1.8-1.6,3.1c0.3,1,1.3,1.7,2.4,1.7c0.3,0,0.5,0,0.8-0.1l6.7-2.2
			c1.1,1.9,1.9,3.9,2.3,6.1c-4.3,2.9-9.5,4.2-14.7,3.6c-3.8-1.3-7-5-7.4-8.6c-0.3-2.7,0.9-4.8,3.6-6.3c1.2-0.7,1.6-2.2,1-3.4
			c-0.4-0.6-1-1.1-1.7-1.2c-2.6-0.5-5.3-3.4-5.3-7.8c0.2-2.7,1.7-5,4.1-6.2c2.8-1.5,6.1-1,9.3,1.2c1.1,0.8,2.7,0.5,3.4-0.6
			c0.2-0.3,0.4-0.7,0.4-1.1c0.1-0.6,0.3-2.3,3.3-2.7c4-0.6,10,1.8,11.8,5.9c0.2,0.4,0.4,0.7,0.8,0.9c3.1,7.8,1.4,16.8-4.3,22.9
			C56.7,52.8,54.5,48.8,51.6,45.4L51.6,45.4z M19.7,42c0-12.3,9.9-22.2,22.2-22.2c3.6,0,7.1,0.9,10.2,2.5c-0.9-0.1-1.8,0-2.7,0.1
			c-2.5,0.3-4.8,1.6-6.3,3.7c-3.7-1.8-8-1.8-11.7,0c-4,2.1-6.6,6.1-6.8,10.6c-0.1,4.2,1.8,8.3,5.1,10.8c-2.1,2.3-3.1,5.4-2.7,8.5
			c0.2,1.1,0.5,2.2,0.9,3.3C22.7,55.1,19.7,48.7,19.7,42z M6.5,28.6c2.2-5.3,7.4-8.8,13.2-8.9c1.4-0.1,2.4-1.3,2.2-2.7
			c-0.1-1.3-1.1-2.2-2.4-2.3c-0.7,0-1.4,0.1-2.1,0.2c0.8-3.9,3.5-7.1,7.8-8.8c7.2-2.6,15.2-1,20.9,4.1c-0.7,1.5-1.3,3.1-1.6,4.7
			c-0.9-0.1-1.7-0.1-2.6-0.1c-15,0-27.1,12.2-27.1,27.1l0,0c0,0.9,0,1.8,0.1,2.6c-2.2,0.4-4.3,1.2-6.2,2.4
			C4.7,41.7,3.8,34.7,6.5,28.6z M19.6,68.5c-0.3-1.2-1.5-2-2.8-1.8c0,0-4.6,0.7-7.4-1.6C8,64,7.2,62,7.2,59.3c0-7.4,5.7-9.3,8.6-9.8
			c0.6,2,1.4,4,2.4,5.8l-6.5,1.6c-1.3,0.3-2.1,1.7-1.8,3c0.3,1.3,1.7,2.1,3,1.8l0,0l8.4-2.1c2.2,2.6,4.8,4.7,7.8,6.3l-2.7,0.9
			c-1.3,0.4-2,1.8-1.5,3.1c0.3,1,1.3,1.7,2.3,1.7c0.3,0,0.5,0,0.8-0.1l7.4-2.5c0.3-0.1,0.6-0.3,0.9-0.5c0.7,0.2,1.4,0.3,2.1,0.4
			c0.2,0,0.3,0.1,0.5,0.2c0.2,0.1,0.4,0.1,0.7,0.1c0.2,0,0.4,0,0.6-0.1c0.6,0,1.2,0.1,1.9,0.1c2.4,0,4.7-0.3,7-0.9
			c-2.6,2.9-7,6-14.3,6C21.7,74.2,19.6,68.7,19.6,68.5z M64.8,64.7c-2.8,2.7-6.5,4.3-10.4,4.4c0.8-1.2,1.5-2.5,2.1-3.9
			c0-0.1,0-0.2,0-0.3c0.6-0.4,1.2-0.8,1.8-1.3l0.1-0.1c2.4-1.9,4.6-4.2,6.2-6.8c0.1,0,0.2,0,0.3-0.1c1.4-0.6,2.7-1.3,4-2.1
			C68.9,58.3,67.4,62,64.8,64.7z"/>
	</g>
</g>
</svg>
