<svg xmlns="http://www.w3.org/2000/svg" viewBox="0 0 134 134"><defs><style>.cls-1{fill:#fff;}</style></defs><g id="Capa_2" data-name="Capa 2"><g id="Capa_1-2" data-name="Capa 1"><g id="Capa_2-2" data-name="Capa 2"><g id="iconos"><path class="cls-1" d="M49.08,77.05a22.26,22.26,0,0,1-16.33-6.78A22.25,22.25,0,0,1,26,53.93,22.25,22.25,0,0,1,32.75,37.6a22.26,22.26,0,0,1,16.33-6.78A22.24,22.24,0,0,1,65.41,37.6a22.28,22.28,0,0,1,6.78,16.33A23.15,23.15,0,0,1,49.08,77.05Zm0-10a12.46,12.46,0,0,0,9.29-3.85A13.09,13.09,0,0,0,39.86,44.69a13,13,0,0,0-.12,18.39l.12.12A12.55,12.55,0,0,0,49.08,67Zm50.41,17.7A17.72,17.72,0,0,1,81.74,67.06V67a17.76,17.76,0,1,1,30.32,12.56A17.11,17.11,0,0,1,99.49,84.75ZM57.28,123.28q8-14.91,20.52-20.35t21.69-5.45a40.41,40.41,0,0,1,7.12.59c2.29.42,4.56,1,6.79,1.59a62.26,62.26,0,0,0,7.45-14.74A51.91,51.91,0,0,0,124,67q0-23.79-16.58-40.37T67,10.05q-23.79,0-40.37,16.58T10.05,67a55.18,55.18,0,0,0,9.38,30.82,65.25,65.25,0,0,1,14.24-5.36,62.1,62.1,0,0,1,15.41-2,66.22,66.22,0,0,1,8.79.59,39.2,39.2,0,0,1,8,1.92A52.65,52.65,0,0,0,60,96.56a41.32,41.32,0,0,0-4.85,4.11C54,100.56,53,100.5,52,100.5H49.08a53.26,53.26,0,0,0-12.31,1.59A57,57,0,0,0,25.29,106,60.9,60.9,0,0,0,40,117.33,50.78,50.78,0,0,0,57.28,123.28ZM67,134a64.73,64.73,0,0,1-26-5.28A67.44,67.44,0,0,1,5.28,93,64.9,64.9,0,0,1,0,67,64.56,64.56,0,0,1,5.28,41,67.68,67.68,0,0,1,41,5.28,64.9,64.9,0,0,1,67,0,64.76,64.76,0,0,1,93.05,5.28,67.9,67.9,0,0,1,128.72,41,64.56,64.56,0,0,1,134,67a64.73,64.73,0,0,1-5.28,26,67.66,67.66,0,0,1-35.67,35.76A64.63,64.63,0,0,1,67,134Z"/></g></g></g></g></svg>