<svg xmlns="http://www.w3.org/2000/svg" viewBox="0 0 162.36 134"><defs><style>.cls-1{fill:#fff;}</style></defs><g id="Capa_2" data-name="Capa 2"><g id="textos"><path class="cls-1" d="M149.36,71.42,143,65a6.7,6.7,0,0,1,0-9.48l1.74-1.74a7.07,7.07,0,0,1,9.38,0l6.48,6.48a7.07,7.07,0,0,1,0,9.38l-1.74,1.74A6.7,6.7,0,0,1,149.36,71.42Zm-69,55.88v-6.38a6.73,6.73,0,0,1,2-4.74L123.9,74.64a6.7,6.7,0,0,1,9.48,0L139.76,81a6.7,6.7,0,0,1,0,9.48L98.22,132a6.73,6.73,0,0,1-4.74,2H87.1A6.7,6.7,0,0,1,80.4,127.3ZM0,80.4H0a6.7,6.7,0,0,1,6.7-6.7H60.3A6.7,6.7,0,0,1,67,80.4h0a6.7,6.7,0,0,1-6.7,6.7H6.7A6.7,6.7,0,0,1,0,80.4ZM0,43.55H0a6.7,6.7,0,0,1,6.7-6.7H98.27a6.7,6.7,0,0,1,6.7,6.7h0a6.7,6.7,0,0,1-6.7,6.7H6.7A6.7,6.7,0,0,1,0,43.55ZM0,6.7H0A6.7,6.7,0,0,1,6.7,0H98.27A6.7,6.7,0,0,1,105,6.7h0a6.7,6.7,0,0,1-6.7,6.7H6.7A6.7,6.7,0,0,1,0,6.7Z"/></g></g></svg>