<svg xmlns="http://www.w3.org/2000/svg" viewBox="0 0 92.57 108"><defs><style>.cls-1{fill:#fff;}</style></defs><g id="Capa_2" data-name="Capa 2"><g id="iconos"><path class="cls-1" d="M84.86,108H7.71a7.43,7.43,0,0,1-5.4-2.31A7.43,7.43,0,0,1,0,100.29V32.14a7.43,7.43,0,0,1,2.31-5.4,7.43,7.43,0,0,1,5.4-2.31H21.86A24.12,24.12,0,0,1,28.67,7.14,22.5,22.5,0,0,1,45.64,0,24.63,24.63,0,0,1,63.26,7.14a23,23,0,0,1,7.45,17.29H84.86a7.89,7.89,0,0,1,7.71,7.71v68.15A7.89,7.89,0,0,1,84.86,108ZM29.57,24.43H63A16.48,16.48,0,0,0,46.29,7.71,16.48,16.48,0,0,0,29.57,24.43Zm55.29,75.86V32.14H7.71v68.15ZM46.29,63a25.69,25.69,0,0,0,17.1-6.62q7.71-6.63,7.71-14.85A3.38,3.38,0,0,0,69.94,39a4,4,0,0,0-2.83-1.09,3.68,3.68,0,0,0-2.5,1,4.15,4.15,0,0,0-1.35,2.51,17.09,17.09,0,0,1-6.11,10,17,17,0,0,1-21.73,0,17.09,17.09,0,0,1-6.11-10,4,4,0,0,0-1.41-2.51,3.93,3.93,0,0,0-2.57-1A3.79,3.79,0,0,0,22.63,39a3.38,3.38,0,0,0-1.16,2.51q0,8.22,7.65,14.85A25.58,25.58,0,0,0,46.29,63ZM7.71,32.14v0Z"/></g></g></svg>