<svg xmlns="http://www.w3.org/2000/svg" viewBox="0 0 106.34 108"><defs><style>.cls-1{fill:#fff;}</style></defs><g id="Capa_2" data-name="Capa 2"><g id="iconos"><path class="cls-1" d="M31.9,108a9.73,9.73,0,1,1,6.83-16.63A9.71,9.71,0,0,1,31.9,108ZM86,108a9.73,9.73,0,1,1,6.82-16.63,9.29,9.29,0,0,1,2.91,6.9A9.7,9.7,0,0,1,86,108ZM24.87,18.79,39.74,49.61H78.67L95.56,18.79Zm5.68,61.09c-3.79,0-6.51-1.26-8.18-3.78s-1.64-5.36.07-8.52l8.65-15.95L10.54,8.11H3.92A3.67,3.67,0,0,1,1.15,6.89,4.15,4.15,0,0,1,0,3.92,3.75,3.75,0,0,1,1.15,1.15,3.91,3.91,0,0,1,4.06,0h9.19a3.87,3.87,0,0,1,2.16.61A4.16,4.16,0,0,1,16.9,2.3l3.92,8.38h79.61c2.88,0,4.71.88,5.47,2.63s.52,3.72-.74,5.88L86.91,52a12.76,12.76,0,0,1-3.78,4,9.1,9.1,0,0,1-5.27,1.69h-41l-7.57,14H91.78A3.69,3.69,0,0,1,94.55,73a4,4,0,0,1,1.15,2.84,3.92,3.92,0,0,1-4.06,4Zm9.19-30.27h0Z"/></g></g></svg>