<svg xmlns="http://www.w3.org/2000/svg" viewBox="0 0 111.3 108"><defs><style>.cls-1{fill:#fff;}</style></defs><g id="Capa_2" data-name="Capa 2"><g id="iconos"><path class="cls-1" d="M55.65,52.17q-11.48,0-18.78-7.3t-7.3-18.78q0-11.49,7.3-18.79T55.65,0Q67.13,0,74.43,7.3t7.31,18.79q0,11.48-7.31,18.78T55.65,52.17ZM100.87,108H10.43A10.07,10.07,0,0,1,3,105a10.07,10.07,0,0,1-3-7.39V91.65a19.15,19.15,0,0,1,3.3-11.3,21.25,21.25,0,0,1,8.53-7.13,130.38,130.38,0,0,1,22.34-7.83,90.3,90.3,0,0,1,21.48-2.61A86.37,86.37,0,0,1,77,65.48,148.13,148.13,0,0,1,99.3,73.22a20.9,20.9,0,0,1,8.7,7.13,19.15,19.15,0,0,1,3.3,11.3v5.92A10.38,10.38,0,0,1,100.87,108ZM10.43,97.57h90.44V91.65a9.53,9.53,0,0,0-1.65-5.3,10.49,10.49,0,0,0-4.09-3.74,91.79,91.79,0,0,0-20.35-7.39,89.5,89.5,0,0,0-19.13-2,91.93,91.93,0,0,0-19.3,2A87.86,87.86,0,0,0,16,82.61a10.48,10.48,0,0,0-5.57,9ZM55.65,41.74A15.17,15.17,0,0,0,71.3,26.09,15.17,15.17,0,0,0,55.65,10.43,15.17,15.17,0,0,0,40,26.09,15.17,15.17,0,0,0,55.65,41.74Z"/></g></g></svg>