<svg xmlns="http://www.w3.org/2000/svg" viewBox="0 0 126 103.09"><defs><style>.cls-1{fill:#fff;}</style></defs><g id="Capa_2" data-name="Capa 2"><g id="iconos"><path class="cls-1" d="M98.37,31.07h0a4.29,4.29,0,0,0,4.29-4.29h0a4.29,4.29,0,0,0-4.29-4.29h0a4.29,4.29,0,0,0-4.3,4.29h0A4.29,4.29,0,0,0,98.37,31.07Zm0,24.48h0a4.29,4.29,0,0,0,4.29-4.29h0A4.3,4.3,0,0,0,98.37,47h0a4.3,4.3,0,0,0-4.3,4.3h0A4.29,4.29,0,0,0,98.37,55.55Zm0,24.35h0a4.3,4.3,0,0,0,4.29-4.3h0a4.3,4.3,0,0,0-4.29-4.3h0a4.3,4.3,0,0,0-4.3,4.3h0A4.3,4.3,0,0,0,98.37,79.9ZM86.05,98.8h0a4.3,4.3,0,0,1,4.3-4.3h22.76a4.29,4.29,0,0,0,4.3-4.3V12.89a4.29,4.29,0,0,0-4.3-4.3h-48a4.3,4.3,0,0,0-4.3,4.3v3.49a4.3,4.3,0,0,1-6.76,3.52h0a4.33,4.33,0,0,1-1.83-3.52V8.59a8.27,8.27,0,0,1,2.51-6.08A8.29,8.29,0,0,1,60.85,0h56.56a8.27,8.27,0,0,1,6.08,2.51A8.27,8.27,0,0,1,126,8.59V94.5a8.55,8.55,0,0,1-8.59,8.59H90.35A4.3,4.3,0,0,1,86.05,98.8Zm-86,0V51.69a9,9,0,0,1,.93-3.94,7.57,7.57,0,0,1,2.65-3.08L33.79,23.05a8.78,8.78,0,0,1,10,0L73.88,44.67a7.57,7.57,0,0,1,2.65,3.08,9,9,0,0,1,.93,3.94V98.8a4.17,4.17,0,0,1-4.29,4.29H50.69a4.29,4.29,0,0,1-4.3-4.29V78.61a4.29,4.29,0,0,0-4.29-4.3H35.51a4.3,4.3,0,0,0-4.3,4.3V98.8a4.29,4.29,0,0,1-4.29,4.29H4.3A4.17,4.17,0,0,1,0,98.8Zm12.89-4.3h5.44a4.29,4.29,0,0,0,4.29-4.3V70a4.3,4.3,0,0,1,4.3-4.3H50.69A4.29,4.29,0,0,1,55,70V90.2a4.29,4.29,0,0,0,4.3,4.3h5.3a4.29,4.29,0,0,0,4.29-4.3V53.89a4.29,4.29,0,0,0-1.79-3.49L41.3,31.87a4.28,4.28,0,0,0-5,0L10.39,50.4a4.3,4.3,0,0,0-1.8,3.5V90.2A4.29,4.29,0,0,0,12.89,94.5ZM55,94.5V70a4.29,4.29,0,0,0-4.29-4.3H26.92a4.3,4.3,0,0,0-4.3,4.3v0a4.3,4.3,0,0,1,4.3-4.3H50.69A4.29,4.29,0,0,1,55,70Z"/></g></g></svg>