<svg xmlns="http://www.w3.org/2000/svg" viewBox="0 0 126 126"><defs><style>.cls-1{fill:#eb672f;}</style></defs><g id="Capa_2" data-name="Capa 2"><g id="textos"><path class="cls-1" d="M48.51,126l-3.15-19.84a46.79,46.79,0,0,1-12.13-6.94l-18.58,8.51L0,81.9,17,69.46a18.55,18.55,0,0,1-.39-3.23C16.56,65,16.54,64,16.54,63s0-2,.08-3.23A18.55,18.55,0,0,1,17,56.54L0,44.1,14.65,18.27l18.58,8.5a43.46,43.46,0,0,1,5.83-3.93A32.9,32.9,0,0,1,45.36,20L48.51,0h29l3.15,19.85A50.43,50.43,0,0,1,87,22.76a27.26,27.26,0,0,1,5.75,4l18.58-8.5L126,44.1,109,56.23a21.92,21.92,0,0,1,.39,3.38c.06,1.21.08,2.34.08,3.39s0,2.15-.08,3.31a21.45,21.45,0,0,1-.39,3.3L126,81.9l-14.65,25.83L92.77,99.22a51.51,51.51,0,0,1-5.75,4,28,28,0,0,1-6.38,2.92L77.49,126ZM63,83.47A20.43,20.43,0,0,0,83.48,63,20.45,20.45,0,0,0,63,42.52,20.43,20.43,0,0,0,42.53,63,20.42,20.42,0,0,0,63,83.47ZM63,74A11,11,0,0,1,55.2,55.2,11,11,0,0,1,70.8,70.8,10.64,10.64,0,0,1,63,74Zm-6.93,42.53H69.93l2.2-17.64A37,37,0,0,0,82,95a40.09,40.09,0,0,0,8.43-6.46l16.69,7.25,6.3-11.34L98.59,73.55q.64-2.67,1-5.27A35.68,35.68,0,0,0,100,63a43.91,43.91,0,0,0-.31-5.28,33,33,0,0,0-1.1-5.27l14.8-10.87-6.3-11.34L90.41,37.49a35.17,35.17,0,0,0-8.19-6.86,26.82,26.82,0,0,0-10.09-3.54L69.93,9.45H56.07l-2.2,17.64a33.18,33.18,0,0,0-10,3.78,35,35,0,0,0-8.26,6.61L18.9,30.24,12.6,41.58,27.4,52.45q-.63,2.67-1,5.27a35.94,35.94,0,0,0,0,10.56q.39,2.59,1,5.27L12.6,84.42l6.3,11.34,16.7-7.25A40.11,40.11,0,0,0,44,95a37,37,0,0,0,9.85,3.94Z"/></g></g></svg>