<svg xmlns="http://www.w3.org/2000/svg" viewBox="0 0 87.72 108"><defs><style>.cls-1{fill:#fff;}</style></defs><g id="Capa_2" data-name="Capa 2"><g id="iconos"><path class="cls-1" d="M43.86,53.45a9.59,9.59,0,0,0,9.59-9.59,9.59,9.59,0,0,0-9.59-9.6,9.59,9.59,0,0,0-9.6,9.6,9.59,9.59,0,0,0,9.6,9.59Zm0,45.37Q62.08,82.23,70.79,68.73T79.49,45q0-16.17-10.35-26.45A34.5,34.5,0,0,0,43.86,8.22,34.54,34.54,0,0,0,18.57,18.5Q8.22,28.79,8.22,45q0,10.29,8.91,23.78T43.86,98.82ZM44,108a5.72,5.72,0,0,1-1.78-.27,4.91,4.91,0,0,1-1.5-.83q-20.43-18-30.57-33.3T0,45Q0,24.4,13.23,12.2A43.79,43.79,0,0,1,43.86,0q17.4,0,30.63,12.2T87.72,45q0,13.3-10.15,28.65T47,106.9a5.26,5.26,0,0,1-1.44.83A4.64,4.64,0,0,1,44,108Z"/></g></g></svg>