<svg xmlns="http://www.w3.org/2000/svg" viewBox="0 0 127.47 105.2"><defs><style>.cls-1{fill:#fff;}</style></defs><g id="Capa_2" data-name="Capa 2"><g id="textos"><path class="cls-1" d="M117.27,56.07l-5-5a5.25,5.25,0,0,1,0-7.44l1.36-1.36a5.52,5.52,0,0,1,7.37,0l5.08,5.08a5.55,5.55,0,0,1,0,7.37l-1.36,1.36A5.25,5.25,0,0,1,117.27,56.07ZM63.12,99.94v-5a5.3,5.3,0,0,1,1.54-3.72L97.28,58.6a5.27,5.27,0,0,1,7.44,0l5,5a5.27,5.27,0,0,1,0,7.44L77.11,103.66a5.23,5.23,0,0,1-3.72,1.54h-5A5.26,5.26,0,0,1,63.12,99.94ZM0,63.12H0a5.27,5.27,0,0,1,5.26-5.26H47.34a5.26,5.26,0,0,1,5.26,5.26h0a5.25,5.25,0,0,1-5.26,5.26H5.26A5.26,5.26,0,0,1,0,63.12ZM0,34.19H0a5.27,5.27,0,0,1,5.26-5.26H77.15a5.26,5.26,0,0,1,5.26,5.26h0a5.25,5.25,0,0,1-5.26,5.26H5.26A5.26,5.26,0,0,1,0,34.19ZM0,5.26H0A5.27,5.27,0,0,1,5.26,0H77.15a5.26,5.26,0,0,1,5.26,5.26h0a5.25,5.25,0,0,1-5.26,5.26H5.26A5.26,5.26,0,0,1,0,5.26Z"/></g></g></svg>