<svg xmlns="http://www.w3.org/2000/svg" viewBox="0 0 108 108"><defs><style>.cls-1{fill:#fff;}</style></defs><g id="Capa_2" data-name="Capa 2"><g id="iconos"><path class="cls-1" d="M40.5,77a4.49,4.49,0,0,1-1.35-3.3A4,4,0,0,1,40.5,70.5l12-12H4.5a4.5,4.5,0,1,1,0-9H52.2L40.05,37.35a4.15,4.15,0,0,1-1.2-3.07,4.56,4.56,0,0,1,7.8-3.23L66.6,51a4.57,4.57,0,0,1,1.05,1.5,4.69,4.69,0,0,1,0,3.3,4.57,4.57,0,0,1-1.05,1.5L46.8,77.1a4.15,4.15,0,0,1-3.07,1.2A4.41,4.41,0,0,1,40.5,77ZM59.85,108a4.5,4.5,0,1,1,0-9H99V9H59.85a4.38,4.38,0,0,1-4.5-4.5,4.36,4.36,0,0,1,1.28-3.22A4.32,4.32,0,0,1,59.85,0H99a8.63,8.63,0,0,1,6.3,2.7A8.63,8.63,0,0,1,108,9V99a9.23,9.23,0,0,1-9,9Z"/></g></g></svg>