<svg xmlns="http://www.w3.org/2000/svg" viewBox="0 0 113.8 113.8"><defs><style>.cls-1{fill:#fff;}</style></defs><g id="Capa_2" data-name="Capa 2"><g id="textos"><path class="cls-1" d="M56.9,113.8a55.35,55.35,0,0,1-22.19-4.48A56.76,56.76,0,0,1,4.48,79.09,55.35,55.35,0,0,1,0,56.9,55.35,55.35,0,0,1,4.48,34.71,56.76,56.76,0,0,1,34.71,4.48,55.35,55.35,0,0,1,56.9,0,55.35,55.35,0,0,1,79.09,4.48a56.76,56.76,0,0,1,30.23,30.23A55.35,55.35,0,0,1,113.8,56.9a55.35,55.35,0,0,1-4.48,22.19,56.76,56.76,0,0,1-30.23,30.23A55.35,55.35,0,0,1,56.9,113.8Zm-6.12-8.68V93.46a11,11,0,0,1-8.39-3.7A12.4,12.4,0,0,1,39,81.08V74.82L9.82,45.66a39.29,39.29,0,0,0-1,5.62,54.93,54.93,0,0,0-.28,5.62,47.58,47.58,0,0,0,12,32.29A45.84,45.84,0,0,0,50.78,105.12ZM92.61,89.76a47.21,47.21,0,0,0,5.47-7.25,50.14,50.14,0,0,0,4-8,45.53,45.53,0,0,0,2.41-8.61,50.35,50.35,0,0,0,.79-9A48.78,48.78,0,0,0,75,11.52v2.56a12.38,12.38,0,0,1-3.42,8.68,11,11,0,0,1-8.39,3.7H50.78V38.83a4.93,4.93,0,0,1-1.92,4,6.69,6.69,0,0,1-4.34,1.56H32.72V56.9h36.7a5,5,0,0,1,4,1.85A6.39,6.39,0,0,1,75,63V81.08h6.11a11.57,11.57,0,0,1,7.26,2.42A12.08,12.08,0,0,1,92.61,89.76Z"/></g></g></svg>