<svg xmlns="http://www.w3.org/2000/svg" viewBox="0 0 108 108"><defs><style>.cls-1{fill:#fff;}</style></defs><g id="Capa_2" data-name="Capa 2"><g id="iconos"><path class="cls-1" d="M39.55,62.1a17.94,17.94,0,0,1-13.16-5.47,17.94,17.94,0,0,1-5.46-13.16,17.94,17.94,0,0,1,5.46-13.16,17.94,17.94,0,0,1,13.16-5.47,17.93,17.93,0,0,1,13.17,5.47,17.94,17.94,0,0,1,5.46,13.16,17.94,17.94,0,0,1-5.46,13.16A17.93,17.93,0,0,1,39.55,62.1Zm0-8.1a10.09,10.09,0,0,0,7.5-3.1,10.7,10.7,0,0,0,0-14.92,10.67,10.67,0,0,0-14.92,0,10.5,10.5,0,0,0,0,14.92A10.13,10.13,0,0,0,39.55,54ZM80.19,68.31A14.31,14.31,0,0,1,65.88,54,14.31,14.31,0,0,1,90.31,43.88a14.33,14.33,0,0,1,0,20.24A13.81,13.81,0,0,1,80.19,68.31Zm-34,31.05q6.48-12,16.54-16.4t17.48-4.39a33.09,33.09,0,0,1,5.74.47c1.75.32,3.57.74,5.47,1.28a50.36,50.36,0,0,0,6-11.88A41.89,41.89,0,0,0,99.9,54,44.27,44.27,0,0,0,86.53,21.46,44.3,44.3,0,0,0,54,8.1,44.34,44.34,0,0,0,21.46,21.46,44.34,44.34,0,0,0,8.1,54a44.38,44.38,0,0,0,7.56,24.84,52.42,52.42,0,0,1,11.48-4.32A50,50,0,0,1,39.55,72.9a52.77,52.77,0,0,1,7.09.47,30.67,30.67,0,0,1,6.41,1.56,38,38,0,0,0-4.72,2.9,32.06,32.06,0,0,0-3.92,3.3A25.52,25.52,0,0,0,41.85,81h-2.3a42.87,42.87,0,0,0-9.92,1.28,46.28,46.28,0,0,0-9.24,3.18A48.81,48.81,0,0,0,32.2,94.57,41,41,0,0,0,46.17,99.36ZM54,108a52.36,52.36,0,0,1-20.93-4.25A54.42,54.42,0,0,1,4.25,74.93,52.39,52.39,0,0,1,0,54,52.16,52.16,0,0,1,4.25,33,54.58,54.58,0,0,1,33.07,4.25,52.36,52.36,0,0,1,54,0,52.16,52.16,0,0,1,75,4.25,54.75,54.75,0,0,1,103.75,33,52.16,52.16,0,0,1,108,54a52.39,52.39,0,0,1-4.25,20.93A54.58,54.58,0,0,1,75,103.75,52.16,52.16,0,0,1,54,108Z"/></g></g></svg>