<svg xmlns="http://www.w3.org/2000/svg" viewBox="0 0 109.27 108"><defs><style>.cls-1{fill:#fff;}</style></defs><g id="Capa_2" data-name="Capa 2"><g id="iconos"><path class="cls-1" d="M11.14,108a10.75,10.75,0,0,1-7.93-3.21,11.4,11.4,0,0,1,0-15.86,10.74,10.74,0,0,1,7.93-3.2A10.93,10.93,0,0,1,22.27,96.86a10.74,10.74,0,0,1-3.2,7.93A10.77,10.77,0,0,1,11.14,108Zm0-42.86a10.75,10.75,0,0,1-7.93-3.21,11.4,11.4,0,0,1,0-15.86,10.75,10.75,0,0,1,7.93-3.21,10.77,10.77,0,0,1,7.93,3.21A10.76,10.76,0,0,1,22.27,54a10.76,10.76,0,0,1-3.2,7.93A10.77,10.77,0,0,1,11.14,65.14Zm0-42.87a10.74,10.74,0,0,1-7.93-3.2A10.77,10.77,0,0,1,0,11.14,10.75,10.75,0,0,1,3.21,3.21,10.75,10.75,0,0,1,11.14,0a10.77,10.77,0,0,1,7.93,3.21,10.74,10.74,0,0,1,3.2,7.93A10.93,10.93,0,0,1,11.14,22.27ZM54,65.14A11,11,0,0,1,42.86,54,11,11,0,0,1,54,42.86,11,11,0,0,1,65.14,54Zm0-42.87a10.76,10.76,0,0,1-7.93-3.2,10.77,10.77,0,0,1-3.21-7.93,10.75,10.75,0,0,1,3.21-7.93,11.4,11.4,0,0,1,15.86,0,10.75,10.75,0,0,1,3.21,7.93,10.77,10.77,0,0,1-3.21,7.93A10.76,10.76,0,0,1,54,22.27ZM49.78,108a2.6,2.6,0,0,1-2.53-2.53V98a5.73,5.73,0,0,1,.68-1.68L88.26,56l11,11L58.89,107.32a4.05,4.05,0,0,1-1.68.68ZM96.86,22.28A10.95,10.95,0,0,1,85.73,11.14,10.95,10.95,0,0,1,96.86,0a10.75,10.75,0,0,1,7.93,3.21A10.75,10.75,0,0,1,108,11.14,11,11,0,0,1,96.86,22.28Zm6.75,40.33-11-11,4.22-4.22A4.92,4.92,0,0,1,100.24,46a4.32,4.32,0,0,1,3.37,1.27L108,51.64A4.32,4.32,0,0,1,109.27,55a4.92,4.92,0,0,1-1.44,3.38Z"/></g></g></svg>